<?xml version="1.0" encoding="utf-8"?>
<COLLADA xmlns="http://www.collada.org/2005/11/COLLADASchema" version="1.4.1" xmlns:xsi="http://www.w3.org/2001/XMLSchema-instance">
  <asset>
    <contributor>
      <author>Blender User</author>
      <authoring_tool>Blender 4.1.1 commit date:2024-04-15, commit time:15:11, hash:e1743a0317bc</authoring_tool>
    </contributor>
    <created>2024-04-29T11:12:43</created>
    <modified>2024-04-29T11:12:43</modified>
    <unit name="meter" meter="1"/>
    <up_axis>Z_UP</up_axis>
  </asset>
  <library_effects>
    <effect id="Aruco100_004-effect">
      <profile_COMMON>
        <newparam sid="aruco103_jpg-surface">
          <surface type="2D">
            <init_from>aruco103_jpg</init_from>
          </surface>
        </newparam>
        <newparam sid="aruco103_jpg-sampler">
          <sampler2D>
            <source>aruco103_jpg-surface</source>
          </sampler2D>
        </newparam>
        <technique sid="common">
          <lambert>
            <emission>
              <color sid="emission">0 0 0 1</color>
            </emission>
            <diffuse>
              <texture texture="aruco103_jpg-sampler" texcoord="Cube_002-mesh-map-0"/>
            </diffuse>
            <index_of_refraction>
              <float sid="ior">1.45</float>
            </index_of_refraction>
          </lambert>
        </technique>
      </profile_COMMON>
    </effect>
  </library_effects>
  <library_images>
    <image id="aruco103_jpg" name="aruco103_jpg">
      <init_from>aruco103.jpg</init_from>
    </image>
  </library_images>
  <library_materials>
    <material id="Aruco100_004-material" name="Aruco100.004">
      <instance_effect url="#Aruco100_004-effect"/>
    </material>
  </library_materials>
  <library_geometries>
    <geometry id="Cube_004-mesh" name="Cube.004">
      <mesh>
        <source id="Cube_004-mesh-positions">
          <float_array id="Cube_004-mesh-positions-array" count="24">-1 -1 -1 -1 -1 1 -1 1 -1 -1 1 1 1 -1 -1 1 -1 1 1 1 -1 1 1 1</float_array>
          <technique_common>
            <accessor source="#Cube_004-mesh-positions-array" count="8" stride="3">
              <param name="X" type="float"/>
              <param name="Y" type="float"/>
              <param name="Z" type="float"/>
            </accessor>
          </technique_common>
        </source>
        <source id="Cube_004-mesh-normals">
          <float_array id="Cube_004-mesh-normals-array" count="18">-1 0 0 0 1 0 1 0 0 0 -1 0 0 0 -1 0 0 1</float_array>
          <technique_common>
            <accessor source="#Cube_004-mesh-normals-array" count="6" stride="3">
              <param name="X" type="float"/>
              <param name="Y" type="float"/>
              <param name="Z" type="float"/>
            </accessor>
          </technique_common>
        </source>
        <source id="Cube_004-mesh-map-0">
          <float_array id="Cube_004-mesh-map-0-array" count="72">0.3333333 0.3333333 0 0 0.3333333 0 0.3333333 0.6666667 0 0.3333334 0.3333333 0.3333334 0.6666666 0.3333333 0.3333334 0 0.6666667 0 0.6666666 0.6666667 0.3333334 0.3333334 0.6666667 0.3333334 0.3333333 0.6666666 0 1 0 0.6666666 0.9896938 0.01078027 0.008417606 0.9920563 0.008417606 0.01078027 0.3333333 0.3333333 0 0.3333333 0 0 0.3333333 0.6666667 0 0.6666666 0 0.3333334 0.6666666 0.3333333 0.3333334 0.3333333 0.3333334 0 0.6666666 0.6666667 0.3333334 0.6666666 0.3333334 0.3333334 0.3333333 0.6666666 0.3333333 1 0 1 0.9896938 0.01078027 0.9896938 0.9920564 0.008417606 0.9920563</float_array>
          <technique_common>
            <accessor source="#Cube_004-mesh-map-0-array" count="36" stride="2">
              <param name="S" type="float"/>
              <param name="T" type="float"/>
            </accessor>
          </technique_common>
        </source>
        <vertices id="Cube_004-mesh-vertices">
          <input semantic="POSITION" source="#Cube_004-mesh-positions"/>
        </vertices>
        <triangles material="Aruco100_004-material" count="12">
          <input semantic="VERTEX" source="#Cube_004-mesh-vertices" offset="0"/>
          <input semantic="NORMAL" source="#Cube_004-mesh-normals" offset="1"/>
          <input semantic="TEXCOORD" source="#Cube_004-mesh-map-0" offset="2" set="0"/>
          <p>1 0 0 2 0 1 0 0 2 3 1 3 6 1 4 2 1 5 7 2 6 4 2 7 6 2 8 5 3 9 0 3 10 4 3 11 6 4 12 0 4 13 2 4 14 3 5 15 5 5 16 7 5 17 1 0 18 3 0 19 2 0 20 3 1 21 7 1 22 6 1 23 7 2 24 5 2 25 4 2 26 5 3 27 1 3 28 0 3 29 6 4 30 4 4 31 0 4 32 3 5 33 1 5 34 5 5 35</p>
        </triangles>
      </mesh>
    </geometry>
  </library_geometries>
  <library_visual_scenes>
    <visual_scene id="Scene" name="Scene">
      <node id="Cube" name="Cube" type="NODE">
        <matrix sid="transform">0.025 0 0 0 0 0.025 0 0 0 0 0.001 0 0 0 0 1</matrix>
        <instance_geometry url="#Cube_004-mesh" name="Cube">
          <bind_material>
            <technique_common>
              <instance_material symbol="Aruco100_004-material" target="#Aruco100_004-material">
                <bind_vertex_input semantic="Cube_002-mesh-map-0" input_semantic="TEXCOORD" input_set="0"/>
              </instance_material>
            </technique_common>
          </bind_material>
        </instance_geometry>
      </node>
    </visual_scene>
  </library_visual_scenes>
  <scene>
    <instance_visual_scene url="#Scene"/>
  </scene>
</COLLADA>