<?xml version="1.0" encoding="utf-8"?>
<COLLADA xmlns="http://www.collada.org/2005/11/COLLADASchema" version="1.4.1" xmlns:xsi="http://www.w3.org/2001/XMLSchema-instance">
  <asset>
    <contributor>
      <author>Blender User</author>
      <authoring_tool>Blender 4.1.1 commit date:2024-04-15, commit time:15:11, hash:e1743a0317bc</authoring_tool>
    </contributor>
    <created>2024-04-22T17:20:38</created>
    <modified>2024-04-22T17:20:38</modified>
    <unit name="meter" meter="1"/>
    <up_axis>Z_UP</up_axis>
  </asset>
  <library_images/>
  <library_geometries>
    <geometry id="shape0-mesh" name="shape0">
      <mesh>
        <source id="shape0-mesh-positions">
          <float_array id="shape0-mesh-positions-array" count="3192">-46.1241 -42.1241 766.752 -83.1241 -42.1241 803.752 -46.1241 -39.1241 766.752 -83.1241 -39.1241 803.752 -46.1241 -39.1241 803.752 -83.1241 -2.12414 803.752 -46.1241 -2.12414 766.752 -83.1241 -5.12414 803.752 -46.1241 -5.12414 766.752 -46.1241 -5.12414 803.752 -46.1241 -26.9538 788.046 -43.1241 -26.9538 788.046 -46.1241 -27.1241 786.752 -43.1241 -27.1241 786.752 -46.1241 -26.9538 785.458 -43.1241 -26.9538 785.458 -46.1241 -26.4543 784.252 -43.1241 -26.4543 784.252 -46.1241 -25.6597 783.2161 -43.1241 -25.6597 783.2161 -46.1241 -24.6241 782.4221 -43.1241 -24.6241 782.4221 -46.1241 -23.4182 781.9221 -43.1241 -23.4182 781.9221 -46.1241 -22.1241 781.752 -43.1241 -22.1241 781.752 -46.1241 -20.83 781.9221 -43.1241 -20.83 781.9221 -46.1241 -19.6241 782.4221 -43.1241 -19.6241 782.4221 -46.1241 -18.5886 783.2161 -43.1241 -18.5886 783.2161 -46.1241 -17.794 784.252 -43.1241 -17.794 784.252 -46.1241 -17.2945 785.458 -43.1241 -17.2945 785.458 -46.1241 -17.1241 786.752 -43.1241 -17.1241 786.752 -46.1241 -17.2945 788.046 -43.1241 -17.2945 788.046 -46.1241 -17.794 789.252 -43.1241 -17.794 789.252 -46.1241 -18.5886 790.2871 -43.1241 -18.5886 790.2871 -46.1241 -19.6241 791.082 -43.1241 -19.6241 791.082 -46.1241 -20.83 791.5811 -43.1241 -20.83 791.5811 -46.1241 -22.1241 791.752 -43.1241 -22.1241 791.752 -46.1241 -23.4182 791.5811 -43.1241 -23.4182 791.5811 -46.1241 -24.6241 791.082 -43.1241 -24.6241 791.082 -46.1241 -25.6597 790.2871 -43.1241 -25.6597 790.2871 -46.1241 -26.4543 789.252 -43.1241 -26.4543 789.252 -64.4182 -26.9538 803.752 -64.4182 -26.9538 806.752 -63.1241 -27.1241 803.752 -63.1241 -27.1241 806.752 -61.83 -26.9538 803.752 -61.83 -26.9538 806.752 -60.6241 -26.4543 803.752 -60.6241 -26.4543 806.752 -59.5886 -25.6597 803.752 -59.5886 -25.6597 806.752 -58.794 -24.6241 803.752 -58.794 -24.6241 806.752 -58.2945 -23.4182 803.752 -58.2945 -23.4182 806.752 -58.1241 -22.1241 803.752 -58.1241 -22.1241 806.752 -58.2945 -20.83 803.752 -58.2945 -20.83 806.752 -58.794 -19.6241 803.752 -58.794 -19.6241 806.752 -59.5886 -18.5886 803.752 -59.5886 -18.5886 806.752 -60.6241 -17.794 803.752 -60.6241 -17.794 806.752 -61.83 -17.2945 803.752 -61.83 -17.2945 806.752 -63.1241 -17.1241 803.752 -63.1241 -17.1241 806.752 -64.4182 -17.2945 803.752 -64.4182 -17.2945 806.752 -65.6241 -17.794 803.752 -65.6241 -17.794 806.752 -66.6597 -18.5886 803.752 -66.6597 -18.5886 806.752 -67.4543 -19.6241 803.752 -67.4543 -19.6241 806.752 -67.9538 -20.83 803.752 -67.9538 -20.83 806.752 -68.1241 -22.1241 803.752 -68.1241 -22.1241 806.752 -67.9538 -23.4182 803.752 -67.9538 -23.4182 806.752 -67.4543 -24.6241 803.752 -67.4543 -24.6241 806.752 -66.6597 -25.6597 803.752 -66.6597 -25.6597 806.752 -65.6241 -26.4543 803.752 -65.6241 -26.4543 806.752 -83.1241 -42.1241 806.752 -83.1241 -2.12414 806.752 -43.1241 -42.1241 806.752 -43.1241 -2.12414 806.752 -43.1241 -42.1241 766.752 -43.1241 -2.12414 766.752 42.1241 -46.1241 766.752 42.1241 -83.1241 803.752 39.1241 -46.1241 766.752 39.1241 -83.1241 803.752 39.1241 -46.1241 803.752 2.12414 -83.1241 803.752 2.12414 -46.1241 766.752 5.12414 -83.1241 803.752 5.12414 -46.1241 766.752 5.12414 -46.1241 803.752 26.9538 -46.1241 788.046 26.9538 -43.1241 788.046 27.1241 -46.1241 786.752 27.1241 -43.1241 786.752 26.9538 -46.1241 785.458 26.9538 -43.1241 785.458 26.4543 -46.1241 784.252 26.4543 -43.1241 784.252 25.6597 -46.1241 783.2161 25.6597 -43.1241 783.2161 24.6241 -46.1241 782.4221 24.6241 -43.1241 782.4221 23.4182 -46.1241 781.9221 23.4182 -43.1241 781.9221 22.1241 -46.1241 781.752 22.1241 -43.1241 781.752 20.83 -46.1241 781.9221 20.83 -43.1241 781.9221 19.6241 -46.1241 782.4221 19.6241 -43.1241 782.4221 18.5886 -46.1241 783.2161 18.5886 -43.1241 783.2161 17.794 -46.1241 784.252 17.794 -43.1241 784.252 17.2945 -46.1241 785.458 17.2945 -43.1241 785.458 17.1241 -46.1241 786.752 17.1241 -43.1241 786.752 17.2945 -46.1241 788.046 17.2945 -43.1241 788.046 17.794 -46.1241 789.252 17.794 -43.1241 789.252 18.5886 -46.1241 790.2871 18.5886 -43.1241 790.2871 19.6241 -46.1241 791.082 19.6241 -43.1241 791.082 20.83 -46.1241 791.5811 20.83 -43.1241 791.5811 22.1241 -46.1241 791.752 22.1241 -43.1241 791.752 23.4182 -46.1241 791.5811 23.4182 -43.1241 791.5811 24.6241 -46.1241 791.082 24.6241 -43.1241 791.082 25.6597 -46.1241 790.2871 25.6597 -43.1241 790.2871 26.4543 -46.1241 789.252 26.4543 -43.1241 789.252 26.9538 -64.4182 803.752 26.9538 -64.4182 806.752 27.1241 -63.1241 803.752 27.1241 -63.1241 806.752 26.9538 -61.83 803.752 26.9538 -61.83 806.752 26.4543 -60.6241 803.752 26.4543 -60.6241 806.752 25.6597 -59.5886 803.752 25.6597 -59.5886 806.752 24.6241 -58.794 803.752 24.6241 -58.794 806.752 23.4182 -58.2945 803.752 23.4182 -58.2945 806.752 22.1241 -58.1241 803.752 22.1241 -58.1241 806.752 20.83 -58.2945 803.752 20.83 -58.2945 806.752 19.6241 -58.794 803.752 19.6241 -58.794 806.752 18.5886 -59.5886 803.752 18.5886 -59.5886 806.752 17.794 -60.6241 803.752 17.794 -60.6241 806.752 17.2945 -61.83 803.752 17.2945 -61.83 806.752 17.1241 -63.1241 803.752 17.1241 -63.1241 806.752 17.2945 -64.4182 803.752 17.2945 -64.4182 806.752 17.794 -65.6241 803.752 17.794 -65.6241 806.752 18.5886 -66.6597 803.752 18.5886 -66.6597 806.752 19.6241 -67.4543 803.752 19.6241 -67.4543 806.752 20.83 -67.9538 803.752 20.83 -67.9538 806.752 22.1241 -68.1241 803.752 22.1241 -68.1241 806.752 23.4182 -67.9538 803.752 23.4182 -67.9538 806.752 24.6241 -67.4543 803.752 24.6241 -67.4543 806.752 25.6597 -66.6597 803.752 25.6597 -66.6597 806.752 26.4543 -65.6241 803.752 26.4543 -65.6241 806.752 42.1241 -83.1241 806.752 2.12414 -83.1241 806.752 42.1241 -43.1241 806.752 2.12414 -43.1241 806.752 42.1241 -43.1241 766.752 2.12414 -43.1241 766.752 46.1241 42.1241 766.752 83.1241 42.1241 803.752 46.1241 39.1241 766.752 83.1241 39.1241 803.752 46.1241 39.1241 803.752 83.1241 2.12414 803.752 46.1241 2.12414 766.752 83.1241 5.12414 803.752 46.1241 5.12414 766.752 46.1241 5.12414 803.752 46.1241 26.9538 788.046 43.1241 26.9538 788.046 46.1241 27.1241 786.752 43.1241 27.1241 786.752 46.1241 26.9538 785.458 43.1241 26.9538 785.458 46.1241 26.4543 784.252 43.1241 26.4543 784.252 46.1241 25.6597 783.2161 43.1241 25.6597 783.2161 46.1241 24.6241 782.4221 43.1241 24.6241 782.4221 46.1241 23.4182 781.9221 43.1241 23.4182 781.9221 46.1241 22.1241 781.752 43.1241 22.1241 781.752 46.1241 20.83 781.9221 43.1241 20.83 781.9221 46.1241 19.6241 782.4221 43.1241 19.6241 782.4221 46.1241 18.5886 783.2161 43.1241 18.5886 783.2161 46.1241 17.794 784.252 43.1241 17.794 784.252 46.1241 17.2945 785.458 43.1241 17.2945 785.458 46.1241 17.1241 786.752 43.1241 17.1241 786.752 46.1241 17.2945 788.046 43.1241 17.2945 788.046 46.1241 17.794 789.252 43.1241 17.794 789.252 46.1241 18.5886 790.2871 43.1241 18.5886 790.2871 46.1241 19.6241 791.082 43.1241 19.6241 791.082 46.1241 20.83 791.5811 43.1241 20.83 791.5811 46.1241 22.1241 791.752 43.1241 22.1241 791.752 46.1241 23.4182 791.5811 43.1241 23.4182 791.5811 46.1241 24.6241 791.082 43.1241 24.6241 791.082 46.1241 25.6597 790.2871 43.1241 25.6597 790.2871 46.1241 26.4543 789.252 43.1241 26.4543 789.252 64.4182 26.9538 803.752 64.4182 26.9538 806.752 63.1241 27.1241 803.752 63.1241 27.1241 806.752 61.83 26.9538 803.752 61.83 26.9538 806.752 60.6241 26.4543 803.752 60.6241 26.4543 806.752 59.5886 25.6597 803.752 59.5886 25.6597 806.752 58.794 24.6241 803.752 58.794 24.6241 806.752 58.2945 23.4182 803.752 58.2945 23.4182 806.752 58.1241 22.1241 803.752 58.1241 22.1241 806.752 58.2945 20.83 803.752 58.2945 20.83 806.752 58.794 19.6241 803.752 58.794 19.6241 806.752 59.5886 18.5886 803.752 59.5886 18.5886 806.752 60.6241 17.794 803.752 60.6241 17.794 806.752 61.83 17.2945 803.752 61.83 17.2945 806.752 63.1241 17.1241 803.752 63.1241 17.1241 806.752 64.4182 17.2945 803.752 64.4182 17.2945 806.752 65.6241 17.794 803.752 65.6241 17.794 806.752 66.6597 18.5886 803.752 66.6597 18.5886 806.752 67.4543 19.6241 803.752 67.4543 19.6241 806.752 67.9538 20.83 803.752 67.9538 20.83 806.752 68.1241 22.1241 803.752 68.1241 22.1241 806.752 67.9538 23.4182 803.752 67.9538 23.4182 806.752 67.4543 24.6241 803.752 67.4543 24.6241 806.752 66.6597 25.6597 803.752 66.6597 25.6597 806.752 65.6241 26.4543 803.752 65.6241 26.4543 806.752 83.1241 42.1241 806.752 83.1241 2.12414 806.752 43.1241 42.1241 806.752 43.1241 2.12414 806.752 43.1241 42.1241 766.752 43.1241 2.12414 766.752 -42.1241 46.1241 766.752 -42.1241 83.1241 803.752 -39.1241 46.1241 766.752 -39.1241 83.1241 803.752 -39.1241 46.1241 803.752 -2.12414 83.1241 803.752 -2.12414 46.1241 766.752 -5.12414 83.1241 803.752 -5.12414 46.1241 766.752 -5.12414 46.1241 803.752 -26.9538 46.1241 788.046 -26.9538 43.1241 788.046 -27.1241 46.1241 786.752 -27.1241 43.1241 786.752 -26.9538 46.1241 785.458 -26.9538 43.1241 785.458 -26.4543 46.1241 784.252 -26.4543 43.1241 784.252 -25.6597 46.1241 783.2161 -25.6597 43.1241 783.2161 -24.6241 46.1241 782.4221 -24.6241 43.1241 782.4221 -23.4182 46.1241 781.9221 -23.4182 43.1241 781.9221 -22.1241 46.1241 781.752 -22.1241 43.1241 781.752 -20.83 46.1241 781.9221 -20.83 43.1241 781.9221 -19.6241 46.1241 782.4221 -19.6241 43.1241 782.4221 -18.5886 46.1241 783.2161 -18.5886 43.1241 783.2161 -17.794 46.1241 784.252 -17.794 43.1241 784.252 -17.2945 46.1241 785.458 -17.2945 43.1241 785.458 -17.1241 46.1241 786.752 -17.1241 43.1241 786.752 -17.2945 46.1241 788.046 -17.2945 43.1241 788.046 -17.794 46.1241 789.252 -17.794 43.1241 789.252 -18.5886 46.1241 790.2871 -18.5886 43.1241 790.2871 -19.6241 46.1241 791.082 -19.6241 43.1241 791.082 -20.83 46.1241 791.5811 -20.83 43.1241 791.5811 -22.1241 46.1241 791.752 -22.1241 43.1241 791.752 -23.4182 46.1241 791.5811 -23.4182 43.1241 791.5811 -24.6241 46.1241 791.082 -24.6241 43.1241 791.082 -25.6597 46.1241 790.2871 -25.6597 43.1241 790.2871 -26.4543 46.1241 789.252 -26.4543 43.1241 789.252 -26.9538 64.4182 803.752 -26.9538 64.4182 806.752 -27.1241 63.1241 803.752 -27.1241 63.1241 806.752 -26.9538 61.83 803.752 -26.9538 61.83 806.752 -26.4543 60.6241 803.752 -26.4543 60.6241 806.752 -25.6597 59.5886 803.752 -25.6597 59.5886 806.752 -24.6241 58.794 803.752 -24.6241 58.794 806.752 -23.4182 58.2945 803.752 -23.4182 58.2945 806.752 -22.1241 58.1241 803.752 -22.1241 58.1241 806.752 -20.83 58.2945 803.752 -20.83 58.2945 806.752 -19.6241 58.794 803.752 -19.6241 58.794 806.752 -18.5886 59.5886 803.752 -18.5886 59.5886 806.752 -17.794 60.6241 803.752 -17.794 60.6241 806.752 -17.2945 61.83 803.752 -17.2945 61.83 806.752 -17.1241 63.1241 803.752 -17.1241 63.1241 806.752 -17.2945 64.4182 803.752 -17.2945 64.4182 806.752 -17.794 65.6241 803.752 -17.794 65.6241 806.752 -18.5886 66.6597 803.752 -18.5886 66.6597 806.752 -19.6241 67.4543 803.752 -19.6241 67.4543 806.752 -20.83 67.9538 803.752 -20.83 67.9538 806.752 -22.1241 68.1241 803.752 -22.1241 68.1241 806.752 -23.4182 67.9538 803.752 -23.4182 67.9538 806.752 -24.6241 67.4543 803.752 -24.6241 67.4543 806.752 -25.6597 66.6597 803.752 -25.6597 66.6597 806.752 -26.4543 65.6241 803.752 -26.4543 65.6241 806.752 -42.1241 83.1241 806.752 -2.12414 83.1241 806.752 -42.1241 43.1241 806.752 -2.12414 43.1241 806.752 -42.1241 43.1241 766.752 -2.12414 43.1241 766.752 509.489 28.8823 -27 509.489 28.8823 0 510 25 -27 510 25 0 509.489 21.1177 -27 509.489 21.1177 0 507.99 17.5 -27 507.99 17.5 0 505.607 14.3934 -27 505.607 14.3934 0 502.5 12.0096 -27 502.5 12.0096 0 498.882 10.5111 -27 498.882 10.5111 0 495 10 -27 495 10 0 491.118 10.5111 -27 491.118 10.5111 0 487.5 12.0096 -27 487.5 12.0096 0 484.393 14.3934 -27 484.393 14.3934 0 482.01 17.5 -27 482.01 17.5 0 480.511 21.1177 -27 480.511 21.1177 0 480 25 -27 480 25 0 480.511 28.8823 -27 480.511 28.8823 0 482.01 32.5 -27 482.01 32.5 0 484.393 35.6066 -27 484.393 35.6066 0 487.5 37.9904 -27 487.5 37.9904 0 491.118 39.4889 -27 491.118 39.4889 0 495 40 -27 495 40 0 498.882 39.4889 -27 498.882 39.4889 0 502.5 37.9904 -27 502.5 37.9904 0 505.607 35.6066 -27 505.607 35.6066 0 507.99 32.5 -27 507.99 32.5 0 509.489 -21.1177 -27 509.489 -21.1177 0 510 -25 -27 510 -25 0 509.489 -28.8823 -27 509.489 -28.8823 0 507.99 -32.5 -27 507.99 -32.5 0 505.607 -35.6066 -27 505.607 -35.6066 0 502.5 -37.9904 -27 502.5 -37.9904 0 498.882 -39.4889 -27 498.882 -39.4889 0 495 -40 -27 495 -40 0 491.118 -39.4889 -27 491.118 -39.4889 0 487.5 -37.9904 -27 487.5 -37.9904 0 484.393 -35.6066 -27 484.393 -35.6066 0 482.01 -32.5 -27 482.01 -32.5 0 480.511 -28.8823 -27 480.511 -28.8823 0 480 -25 -27 480 -25 0 480.511 -21.1177 -27 480.511 -21.1177 0 482.01 -17.5 -27 482.01 -17.5 0 484.393 -14.3934 -27 484.393 -14.3934 0 487.5 -12.0096 -27 487.5 -12.0096 0 491.118 -10.5111 -27 491.118 -10.5111 0 495 -10 -27 495 -10 0 498.882 -10.5111 -27 498.882 -10.5111 0 502.5 -12.0096 -27 502.5 -12.0096 0 505.607 -14.3934 -27 505.607 -14.3934 0 507.99 -17.5 -27 507.99 -17.5 0 -509.489 -28.8823 -27 -509.489 -28.8823 0 -510 -25 -27 -510 -25 0 -509.489 -21.1177 -27 -509.489 -21.1177 0 -507.99 -17.5 -27 -507.99 -17.5 0 -505.607 -14.3934 -27 -505.607 -14.3934 0 -502.5 -12.0096 -27 -502.5 -12.0096 0 -498.882 -10.5111 -27 -498.882 -10.5111 0 -495 -10 -27 -495 -10 0 -491.118 -10.5111 -27 -491.118 -10.5111 0 -487.5 -12.0096 -27 -487.5 -12.0096 0 -484.393 -14.3934 -27 -484.393 -14.3934 0 -482.01 -17.5 -27 -482.01 -17.5 0 -480.511 -21.1177 -27 -480.511 -21.1177 0 -480 -25 -27 -480 -25 0 -480.511 -28.8823 -27 -480.511 -28.8823 0 -482.01 -32.5 -27 -482.01 -32.5 0 -484.393 -35.6066 -27 -484.393 -35.6066 0 -487.5 -37.9904 -27 -487.5 -37.9904 0 -491.118 -39.4889 -27 -491.118 -39.4889 0 -495 -40 -27 -495 -40 0 -498.882 -39.4889 -27 -498.882 -39.4889 0 -502.5 -37.9904 -27 -502.5 -37.9904 0 -505.607 -35.6066 -27 -505.607 -35.6066 0 -507.99 -32.5 -27 -507.99 -32.5 0 -509.489 21.1177 -27 -509.489 21.1177 0 -510 25 -27 -510 25 0 -509.489 28.8823 -27 -509.489 28.8823 0 -507.99 32.5 -27 -507.99 32.5 0 -505.607 35.6066 -27 -505.607 35.6066 0 -502.5 37.9904 -27 -502.5 37.9904 0 -498.882 39.4889 -27 -498.882 39.4889 0 -495 40 -27 -495 40 0 -491.118 39.4889 -27 -491.118 39.4889 0 -487.5 37.9904 -27 -487.5 37.9904 0 -484.393 35.6066 -27 -484.393 35.6066 0 -482.01 32.5 -27 -482.01 32.5 0 -480.511 28.8823 -27 -480.511 28.8823 0 -480 25 -27 -480 25 0 -480.511 21.1177 -27 -480.511 21.1177 0 -482.01 17.5 -27 -482.01 17.5 0 -484.393 14.3934 -27 -484.393 14.3934 0 -487.5 12.0096 -27 -487.5 12.0096 0 -491.118 10.5111 -27 -491.118 10.5111 0 -495 10 -27 -495 10 0 -498.882 10.5111 -27 -498.882 10.5111 0 -502.5 12.0096 -27 -502.5 12.0096 0 -505.607 14.3934 -27 -505.607 14.3934 0 -507.99 17.5 -27 -507.99 17.5 0 -39.4889 451.118 -27 -39.4889 451.118 0 -40 455 -27 -40 455 0 -39.4889 458.882 -27 -39.4889 458.882 0 -37.9904 462.5 -27 -37.9904 462.5 0 -35.6066 465.607 -27 -35.6066 465.607 0 -32.5 467.99 -27 -32.5 467.99 0 -28.8823 469.489 -27 -28.8823 469.489 0 -25 470 -27 -25 470 0 -21.1177 469.489 -27 -21.1177 469.489 0 -17.5 467.99 -27 -17.5 467.99 0 -14.3934 465.607 -27 -14.3934 465.607 0 -12.0096 462.5 -27 -12.0096 462.5 0 -10.5111 458.882 -27 -10.5111 458.882 0 -10 455 -27 -10 455 0 -10.5111 451.118 -27 -10.5111 451.118 0 -12.0096 447.5 -27 -12.0096 447.5 0 -14.3934 444.393 -27 -14.3934 444.393 0 -17.5 442.01 -27 -17.5 442.01 0 -21.1177 440.511 -27 -21.1177 440.511 0 -25 440 -27 -25 440 0 -28.8823 440.511 -27 -28.8823 440.511 0 -32.5 442.01 -27 -32.5 442.01 0 -35.6066 444.393 -27 -35.6066 444.393 0 -37.9904 447.5 -27 -37.9904 447.5 0 10.5111 451.118 -27 10.5111 451.118 0 10 455 -27 10 455 0 10.5111 458.882 -27 10.5111 458.882 0 12.0096 462.5 -27 12.0096 462.5 0 14.3934 465.607 -27 14.3934 465.607 0 17.5 467.99 -27 17.5 467.99 0 21.1177 469.489 -27 21.1177 469.489 0 25 470 -27 25 470 0 28.8823 469.489 -27 28.8823 469.489 0 32.5 467.99 -27 32.5 467.99 0 35.6066 465.607 -27 35.6066 465.607 0 37.9904 462.5 -27 37.9904 462.5 0 39.4889 458.882 -27 39.4889 458.882 0 40 455 -27 40 455 0 39.4889 451.118 -27 39.4889 451.118 0 37.9904 447.5 -27 37.9904 447.5 0 35.6066 444.393 -27 35.6066 444.393 0 32.5 442.01 -27 32.5 442.01 0 28.8823 440.511 -27 28.8823 440.511 0 25 440 -27 25 440 0 21.1177 440.511 -27 21.1177 440.511 0 17.5 442.01 -27 17.5 442.01 0 14.3934 444.393 -27 14.3934 444.393 0 12.0096 447.5 -27 12.0096 447.5 0 87 -87 818 90 -90 815 87 87 818 90 90 815 -87 -87 818 -90 -90 815 -87 87 818 -90 90 815 -90 90 806 90 90 806 90 -90 806 -35.0272 -39.9261 818 35.0272 -39.9261 818 -34.8909 -38.8909 818 34.8909 -38.8909 818 -35.0272 -37.8556 818 35.0272 -37.8556 818 -35.4268 -36.8909 818 35.4268 -36.8909 818 -36.0624 -36.0624 818 36.0624 -36.0624 818 -36.0624 36.0624 818 36.0624 36.0624 818 -35.4268 36.8909 818 35.4268 36.8909 818 -35.0272 37.8556 818 35.0272 37.8556 818 -34.8909 38.8909 818 34.8909 38.8909 818 -35.0272 39.9261 818 35.0272 39.9261 818 -35.4268 40.8909 818 35.4268 40.8909 818 -36.0624 41.7193 818 36.0624 41.7193 818 -36.8909 42.355 818 36.8909 42.355 818 -37.8556 42.7546 818 37.8556 42.7546 818 38.8909 42.8909 818 39.9261 42.7546 818 35.4268 -40.8909 818 -35.4268 -40.8909 818 36.0624 -41.7193 818 -36.0624 -41.7193 818 36.8909 -42.355 818 -36.8909 -42.355 818 37.8556 -42.7546 818 -37.8556 -42.7546 818 -38.8909 -42.8909 818 -39.9261 -42.7546 818 -40.8909 -42.355 818 -41.7193 -41.7193 818 -42.355 -40.8909 818 -42.7546 -39.9261 818 -42.8909 -38.8909 818 -42.7546 -37.8556 818 -42.7546 37.8556 818 -42.355 -36.8909 818 -42.355 36.8909 818 -41.7193 -36.0624 818 -41.7193 36.0624 818 -40.8909 35.4268 818 -40.8909 -35.4268 818 -39.9261 35.0272 818 -39.9261 -35.0272 818 -38.8909 34.8909 818 -38.8909 -34.8909 818 -37.8556 -35.0272 818 -37.8556 35.0272 818 -36.8909 -35.4268 818 -36.8909 35.4268 818 -42.8909 38.8909 818 -42.7546 39.9261 818 -42.355 40.8909 818 -41.7193 41.7193 818 -40.8909 42.355 818 -39.9261 42.7546 818 -38.8909 42.8909 818 42.7546 -37.8556 818 42.8909 -38.8909 818 42.7546 -39.9261 818 42.355 -40.8909 818 41.7193 -41.7193 818 40.8909 -42.355 818 39.9261 -42.7546 818 38.8909 -42.8909 818 36.8909 35.4268 818 36.8909 -35.4268 818 37.8556 35.0272 818 37.8556 -35.0272 818 38.8909 34.8909 818 38.8909 -34.8909 818 39.9261 -35.0272 818 39.9261 35.0272 818 40.8909 -35.4268 818 40.8909 35.4268 818 41.7193 -36.0624 818 41.7193 36.0624 818 42.355 36.8909 818 42.355 -36.8909 818 42.7546 37.8556 818 42.7546 39.9261 818 42.8909 38.8909 818 40.8909 42.355 818 41.7193 41.7193 818 42.355 40.8909 818 42.7546 37.8556 806 42.8909 38.8909 806 42.7546 39.9261 806 42.355 40.8909 806 41.7193 41.7193 806 40.8909 42.355 806 39.9261 42.7546 806 38.8909 42.8909 806 37.8556 42.7546 806 36.8909 42.355 806 36.0624 41.7193 806 35.4268 40.8909 806 35.0272 39.9261 806 34.8909 38.8909 806 35.0272 37.8556 806 35.4268 36.8909 806 36.0624 36.0624 806 36.8909 35.4268 806 37.8556 35.0272 806 38.8909 34.8909 806 39.9261 35.0272 806 40.8909 35.4268 806 41.7193 36.0624 806 42.355 36.8909 806 42.7546 -39.9261 806 42.8909 -38.8909 806 42.7546 -37.8556 806 42.355 -36.8909 806 41.7193 -36.0624 806 40.8909 -35.4268 806 39.9261 -35.0272 806 38.8909 -34.8909 806 37.8556 -35.0272 806 36.8909 -35.4268 806 36.0624 -36.0624 806 35.4268 -36.8909 806 35.0272 -37.8556 806 34.8909 -38.8909 806 35.0272 -39.9261 806 35.4268 -40.8909 806 36.0624 -41.7193 806 36.8909 -42.355 806 37.8556 -42.7546 806 38.8909 -42.8909 806 39.9261 -42.7546 806 40.8909 -42.355 806 41.7193 -41.7193 806 42.355 -40.8909 806 -35.0272 37.8556 806 -34.8909 38.8909 806 -35.0272 39.9261 806 -35.4268 40.8909 806 -36.0624 41.7193 806 -36.8909 42.355 806 -37.8556 42.7546 806 -38.8909 42.8909 806 -39.9261 42.7546 806 -40.8909 42.355 806 -41.7193 41.7193 806 -42.355 40.8909 806 -42.7546 39.9261 806 -42.8909 38.8909 806 -42.7546 37.8556 806 -42.355 36.8909 806 -41.7193 36.0624 806 -40.8909 35.4268 806 -39.9261 35.0272 806 -38.8909 34.8909 806 -37.8556 35.0272 806 -36.8909 35.4268 806 -36.0624 36.0624 806 -35.4268 36.8909 806 -35.0272 -39.9261 806 -34.8909 -38.8909 806 -35.0272 -37.8556 806 -35.4268 -36.8909 806 -36.0624 -36.0624 806 -36.8909 -35.4268 806 -37.8556 -35.0272 806 -38.8909 -34.8909 806 -39.9261 -35.0272 806 -40.8909 -35.4268 806 -41.7193 -36.0624 806 -42.355 -36.8909 806 -42.7546 -37.8556 806 -42.8909 -38.8909 806 -42.7546 -39.9261 806 -42.355 -40.8909 806 -41.7193 -41.7193 806 -40.8909 -42.355 806 -39.9261 -42.7546 806 -38.8909 -42.8909 806 -37.8556 -42.7546 806 -36.8909 -42.355 806 -36.0624 -41.7193 806 -35.4268 -40.8909 806 -43 -43 806 -90 -90 806 43 -43 806 43 43 806 -43 43 806 43 43 86 -43 43 86 43 -43 86 -43 -43 86 -43 475 86 43 475 86 525 -43 86 525 43 86 43 -475 86 -43 -475 86 -525 43 86 -525 -43 86 -43 43 0 -43 475 0 -43 -43 0 -43 -475 0 43 43 0 43 475 0 43 -43 0 43 -475 0 525 -43 0 525 43 0 -525 -43 0 -525 43 0 39.4889 -458.882 0 40 -455 0 39.4889 -451.118 0 37.9904 -447.5 0 35.6066 -444.393 0 32.5 -442.01 0 28.8823 -440.511 0 25 -440 0 21.1177 -440.511 0 -21.1177 -440.511 0 -25 -440 0 -17.5 -442.01 0 17.5 -442.01 0 -14.3934 -444.393 0 14.3934 -444.393 0 -12.0096 -447.5 0 12.0096 -447.5 0 -10.5111 -451.118 0 10.5111 -451.118 0 -10 -455 0 10 -455 0 -10.5111 -458.882 0 10.5111 -458.882 0 -12.0096 -462.5 0 12.0096 -462.5 0 -14.3934 -465.607 0 14.3934 -465.607 0 -17.5 -467.99 0 17.5 -467.99 0 -21.1177 -469.489 0 21.1177 -469.489 0 25 -470 0 28.8823 -469.489 0 32.5 -467.99 0 35.6066 -465.607 0 37.9904 -462.5 0 -28.8823 -440.511 0 -32.5 -442.01 0 -35.6066 -444.393 0 -37.9904 -447.5 0 -39.4889 -451.118 0 -40 -455 0 -39.4889 -458.882 0 -37.9904 -462.5 0 -35.6066 -465.607 0 -32.5 -467.99 0 -28.8823 -469.489 0 -25 -470 0 -10.5111 -451.118 -27 -10 -455 -27 -10.5111 -458.882 -27 -12.0096 -462.5 -27 -14.3934 -465.607 -27 -17.5 -467.99 -27 -21.1177 -469.489 -27 -25 -470 -27 -28.8823 -469.489 -27 -32.5 -467.99 -27 -35.6066 -465.607 -27 -37.9904 -462.5 -27 -39.4889 -458.882 -27 -40 -455 -27 -39.4889 -451.118 -27 -37.9904 -447.5 -27 -35.6066 -444.393 -27 -32.5 -442.01 -27 -28.8823 -440.511 -27 -25 -440 -27 -21.1177 -440.511 -27 -17.5 -442.01 -27 -14.3934 -444.393 -27 -12.0096 -447.5 -27 39.4889 -451.118 -27 40 -455 -27 39.4889 -458.882 -27 37.9904 -462.5 -27 35.6066 -465.607 -27 32.5 -467.99 -27 28.8823 -469.489 -27 25 -470 -27 21.1177 -469.489 -27 17.5 -467.99 -27 14.3934 -465.607 -27 12.0096 -462.5 -27 10.5111 -458.882 -27 10 -455 -27 10.5111 -451.118 -27 12.0096 -447.5 -27 14.3934 -444.393 -27 17.5 -442.01 -27 21.1177 -440.511 -27 25 -440 -27 28.8823 -440.511 -27 32.5 -442.01 -27 35.6066 -444.393 -27 37.9904 -447.5 -27</float_array>
          <technique_common>
            <accessor source="#shape0-mesh-positions-array" count="1064" stride="3">
              <param name="X" type="float"/>
              <param name="Y" type="float"/>
              <param name="Z" type="float"/>
            </accessor>
          </technique_common>
        </source>
        <source id="shape0-mesh-normals">
          <float_array id="shape0-mesh-normals-array" count="2880">-0.7071068 0 -0.7071068 0 1 0 -0.7071069 0 -0.7071068 0 -1 0 0 0.9914509 -0.1304803 0 0.9914509 0.1304803 0 0.9238897 0.382659 0 0.7934683 0.6086117 0 0.6084544 0.7935889 0 0.3830097 0.9237444 0 0.3827011 0.9238723 0 0.3827011 0.9238723 0 0.3827011 0.9238723 0 0.1302792 0.9914774 0 0.1302797 0.9914773 0 -0.1302797 0.9914773 0 -0.1302792 0.9914774 0 -0.3827011 0.9238723 0 -0.3827011 0.9238723 0 -0.3827011 0.9238723 0 -0.3825668 0.9239279 0 -0.3825668 0.9239279 0 -0.3825668 0.9239279 0 -0.6084911 0.7935607 0 -0.7934683 0.6086117 0 -0.7934703 0.6086092 0 -0.9238897 0.382659 0 -0.9914411 0.130555 0 -0.9914406 0.1305588 0 -0.9914406 -0.1305588 0 -0.9914411 -0.130555 0 -0.9238897 -0.382659 0 -0.7932276 -0.6089254 0 -0.7932258 -0.6089279 0 -0.6089326 -0.793222 0 -0.3823711 -0.9240089 0 -0.3829925 -0.9237515 0 -0.3829925 -0.9237515 0 -0.3829925 -0.9237515 0 -0.1309686 -0.9913865 0 -0.1303038 -0.9914742 -3.73846e-7 -0.1303038 -0.9914742 0 -0.1303038 -0.9914742 0 0.1303038 -0.9914742 0 0.1303038 -0.9914742 3.73846e-7 0.1303038 -0.9914742 0 0.1309686 -0.9913865 0 0.3829925 -0.9237515 0 0.3829925 -0.9237515 0 0.3829925 -0.9237515 0 0.3823711 -0.9240089 0 0.608896 -0.7932502 0 0.7932258 -0.6089279 0 0.9238897 -0.382659 0.1304712 0.9914521 0 0.1304789 0.9914512 0 -0.1304712 0.9914521 0 -0.1304779 0.9914513 0 -0.3826799 0.923881 0 -0.3826771 0.9238822 0 -0.6087748 0.7933431 0 -0.6087785 0.7933403 0 -0.7933682 0.608742 0 -0.793372 0.6087371 0 -0.9238829 0.3826755 0 -0.9238783 0.3826866 0 -0.9914411 0.1305549 0 -0.9914422 0.1305468 0 -0.9914411 -0.1305549 0 -0.9914422 -0.1305468 0 -0.9238829 -0.3826755 0 -0.9238783 -0.3826866 0 -0.7933489 -0.6087672 0 -0.7933337 -0.6087872 0 -0.6087785 -0.7933403 0 -0.6087944 -0.7933282 0 -0.3826771 -0.9238822 0 -0.3826799 -0.923881 0 -0.1305468 -0.9914422 0 -0.1305478 -0.991442 0 0.1305478 -0.991442 0 0.3826771 -0.9238822 0 0.6087409 -0.7933691 0 0.6087568 -0.793357 0 0.7933489 -0.6087672 0 0.7933337 -0.6087872 0 0.9238829 -0.3826755 0 0.923881 -0.3826799 0 0.9914502 -0.130486 0 0.9914522 -0.1304702 0 0.9914512 0.1304783 0 0.9914513 0.1304779 0 0.9238857 0.3826689 0 0.9238783 0.3826866 0 0.7933682 0.608742 0 0.793372 0.6087371 0 0.6087371 0.793372 0 0.6087409 0.7933691 0 0.3826771 0.9238822 0 0 0 -1 -7.12241e-5 0 -1 2.16809e-5 0 -1 -3.82966e-6 0 -1 -3.28343e-5 0 -1 4.20306e-5 0 -1 -1.28921e-5 0 -1 6.09847e-5 0 -1 4.78708e-6 0 -1 -6.6249e-5 0 -1 3.79413e-5 0 -1 7.92625e-5 0 -1 -2.47681e-5 0 -1 -4.87816e-5 0 -1 1.48617e-5 0 -1 -6.50425e-5 0 -1 -2.19964e-5 0 -1 -3.26904e-5 0 -1 8.7558e-5 0 -1 -4.06505e-5 0 -1 -2.03283e-5 0 -1 1.03147e-4 0 -1 -1 0 0 0 0 1 -3.25521e-5 0 -1 -4.78708e-6 0 -1 -1 -4.02903e-7 0 -1 -3.1763e-7 0 -1 2.63807e-6 0 -1 -3.38886e-6 0 -1 4.1408e-7 0 -1 3.38753e-7 0 -1 4.06233e-6 0 -1 -1.75067e-6 0 -1 2.47528e-6 0 -1 1.7508e-6 0 -1 -5.47333e-6 0 -1 -4.4011e-6 0 -1 1.69336e-6 0 -1 3.1763e-7 0 -1 4.9552e-6 0 -1 -3.71453e-6 0 -1 3.38886e-6 0 -1 4.95246e-6 0 -1 -3.09706e-6 0 -1 -3.38753e-7 0 1 0 0 1 -4.05265e-6 0 1 5.35103e-6 0 1 -5.35057e-6 0 1 4.05291e-6 0 1 -5.34645e-6 0 1 5.34645e-6 0 0 -0.7071068 -0.7071068 0 -0.7071068 -0.7071069 -0.9914501 0 -0.1304873 -0.9914521 0 -0.1304712 -0.9914521 0 0.1304712 -0.9914501 0 0.1304873 -0.9238969 0 0.3826416 -0.9238786 0 0.3826857 -0.7934741 0 0.6086041 -0.6084249 0 0.7936114 -0.6085035 0 0.7935513 -0.3830104 0 0.9237441 -0.1305202 0 0.9914457 -0.1305202 0 0.9914457 -0.1305202 1.79955e-7 0.9914457 -0.1303101 0 0.9914733 0.1303101 0 0.9914733 0.1305202 0 0.9914457 0.1305202 -1.79955e-7 0.9914457 0.1305202 0 0.9914457 0.3830104 0 0.9237441 0.6085402 0 0.7935231 0.6084617 0 0.7935834 0.793475 0 0.6086029 0.7934741 0 0.6086041 0.9238786 0 0.3826857 0.9238969 0 0.3826416 0.99144 0 0.1305634 0.9914421 0 0.1305473 0.9914421 0 -0.1305473 0.99144 0 -0.1305634 0.9238969 0 -0.3826416 0.9238786 0 -0.3826857 0.7931978 0 -0.6089643 0.793243 0 -0.6089052 0.6089326 0 -0.793222 0.3823718 0 -0.9240087 0.1303526 0 -0.9914678 0.1303526 0 -0.9914677 0.1303526 0 -0.9914678 0.1310455 0 -0.9913764 -0.1310455 0 -0.9913764 -0.1303526 0 -0.9914677 -0.1303526 0 -0.9914678 -0.1303526 0 -0.9914678 -0.3826819 0 -0.9238803 -0.3826819 0 -0.9238803 -0.3826819 0 -0.9238803 -0.3826819 0 -0.9238803 -0.3826819 0 -0.9238803 -0.3826819 0 -0.9238803 -0.608896 0 -0.7932502 -0.793243 0 -0.6089052 -0.7931967 0 -0.6089655 -0.9238786 0 -0.3826857 -0.9238969 0 -0.3826416 -0.9914522 0.1304702 0 -0.9914522 -0.1304702 0 -0.7933471 -0.6087697 0 -0.7933354 -0.6087847 0 -0.608739 -0.7933706 0 -0.3826905 -0.9238767 0 -0.3826786 -0.9238817 0 -0.1305473 -0.9914421 0 -0.1305401 -0.991443 0 0.1305397 -0.9914432 0 0.3826918 -0.9238761 0 0.6087757 -0.7933425 0 0.7933471 -0.6087697 0 0.7933374 -0.6087823 0 0.9238783 -0.3826866 0 0.9914424 -0.1305449 0 0.991442 -0.1305487 0 0.991442 0.1305487 0 0.9914424 0.1305449 0 0.9238829 0.3826755 0 0.7933701 0.6087396 0 0.6087757 0.7933425 0 0.3826918 0.9238761 0 0.1304784 0.9914512 0 -0.1304789 0.9914512 0 -0.1304707 0.9914522 0 -0.3826786 0.9238817 0 -0.3826905 0.9238767 0 -0.608739 0.7933706 0 -0.7933701 0.6087396 0 -1.3251e-5 0 -1 1.64171e-5 0 -1 -4.43653e-5 0 -1 1.01641e-5 0 -1 3.31245e-5 0 -1 -1.08403e-5 0 -1 -1.98146e-5 0 -1 1.08403e-5 0 -1 -2.47694e-5 0 -1 -3.95935e-5 0 -1 4.43657e-5 0 -1 7.03847e-5 0 -1 -2.25835e-5 0 -1 -1.01641e-5 0 -1 0 -1 8.97577e-6 8.55981e-5 0 1 8.55977e-5 0 1 -8.55903e-5 0 1 -8.55908e-5 0 1 1 0 0 0 -1 7.55521e-7 0 -1 1.58807e-7 0 -1 -5.98385e-7 0 -1 4.55227e-6 0 -1 -3.04978e-6 0 -1 1.86337e-6 0 -1 -1.69372e-7 0 -1 4.78708e-7 0 -1 1.71045e-6 0 -1 -2.04256e-6 0 -1 -5.50044e-7 0 -1 2.62615e-6 0 -1 -5.47347e-6 0 -1 1.41124e-6 0 -1 1.58807e-7 0 -1 9.28674e-7 0 -1 2.37206e-6 0 -1 6.19366e-7 0 -1 -1.69374e-7 0 1 4.05029e-6 0 1 -4.05241e-6 0 1 4.06901e-7 0 1 -4.05261e-6 0 1 4.05046e-6 0 1 -4.06901e-7 0 1 4.05024e-6 0 1 -4.05211e-6 0.7071068 0 -0.7071068 0.7071069 0 -0.7071068 0 -0.9914509 -0.1304803 0 -0.9914509 0.1304803 0 -0.6084544 0.7935889 0 -0.3830097 0.9237444 0 0.3825668 0.9239279 0 0.3825668 0.9239279 0 0.3825668 0.9239279 0 0.6084911 0.7935607 0 0.7934703 0.6086092 0 0.9914411 0.130555 0 0.9914406 0.1305588 0 0.9914406 -0.1305588 0 0.9914411 -0.130555 0 0.7932276 -0.6089254 0 0.6089326 -0.793222 0 -0.608896 -0.7932502 -0.1304712 -0.9914521 0 -0.1304789 -0.9914512 0 0.1304712 -0.9914521 0 0.1304779 -0.9914513 0 0.3826799 -0.923881 0 0.6087748 -0.7933431 0 0.6087785 -0.7933403 0 0.7933682 -0.608742 0 0.793372 -0.6087371 0 0.9914411 -0.1305549 0 0.9914422 -0.1305468 0 0.9914411 0.1305549 0 0.9914422 0.1305468 0 0.7933489 0.6087672 0 0.7933337 0.6087872 0 0.6087785 0.7933403 0 0.6087944 0.7933282 0 0.3826799 0.923881 0 0.1305468 0.9914422 0 0.1305478 0.991442 0 -0.1305478 0.991442 0 -0.6087409 0.7933691 0 -0.6087568 0.793357 0 -0.7933489 0.6087672 0 -0.7933337 0.6087872 0 -0.923881 0.3826799 0 -0.9914502 0.130486 0 -0.9914512 -0.1304783 0 -0.9914513 -0.1304779 0 -0.9238857 -0.3826689 0 -0.7933682 -0.608742 0 -0.793372 -0.6087371 0 -0.6087371 -0.793372 0 -0.6087409 -0.7933691 0 7.12241e-5 0 -1 -2.16809e-5 0 -1 3.82966e-6 0 -1 3.28343e-5 0 -1 -4.20306e-5 0 -1 1.28921e-5 0 -1 -6.09847e-5 0 -1 6.6249e-5 0 -1 -3.79413e-5 0 -1 -7.92625e-5 0 -1 2.47681e-5 0 -1 4.87816e-5 0 -1 -1.48617e-5 0 -1 6.50425e-5 0 -1 2.19964e-5 0 -1 3.26904e-5 0 -1 -8.7558e-5 0 -1 4.06505e-5 0 -1 2.03283e-5 0 -1 -1.03147e-4 0 -1 3.25521e-5 0 -1 1 4.02903e-7 0 1 3.1763e-7 0 1 -2.63807e-6 0 1 3.38886e-6 0 1 -4.1408e-7 0 1 -3.38753e-7 0 1 -4.06233e-6 0 1 1.75067e-6 0 1 -2.47528e-6 0 1 -1.7508e-6 0 1 5.47333e-6 0 1 4.4011e-6 0 1 -1.69336e-6 0 1 -3.1763e-7 0 1 -4.9552e-6 0 1 3.71453e-6 0 1 -3.38886e-6 0 1 -4.95246e-6 0 1 3.09706e-6 0 1 3.38753e-7 0 -1 4.05265e-6 0 -1 -5.35103e-6 0 -1 5.35057e-6 0 -1 -4.05291e-6 0 -1 5.34645e-6 0 -1 -5.34645e-6 0 0 0.7071068 -0.7071068 0 0.7071068 -0.7071069 0.9914501 0 -0.1304873 0.9914521 0 -0.1304712 0.9914521 0 0.1304712 0.9914501 0 0.1304873 0.6084249 0 0.7936114 0.6085035 0 0.7935513 -0.6085402 0 0.7935231 -0.6084617 0 0.7935834 -0.793475 0 0.6086029 -0.99144 0 0.1305634 -0.9914421 0 0.1305473 -0.9914421 0 -0.1305473 -0.99144 0 -0.1305634 -0.7931978 0 -0.6089643 -0.6089326 0 -0.793222 -0.3823718 0 -0.9240087 0.3826819 0 -0.9238803 0.3826819 0 -0.9238803 0.3826819 0 -0.9238803 0.3826819 0 -0.9238803 0.3826819 0 -0.9238803 0.3826819 0 -0.9238803 0.608896 0 -0.7932502 0.7931967 0 -0.6089655 0.9914522 0.1304702 0 0.7933471 0.6087697 0 0.7933354 0.6087847 0 0.608739 0.7933706 0 0.3826905 0.9238767 0 0.3826786 0.9238817 0 0.1305473 0.9914421 0 0.1305401 0.991443 0 -0.1305397 0.9914432 0 -0.3826918 0.9238761 0 -0.6087757 0.7933425 0 -0.7933471 0.6087697 0 -0.7933374 0.6087823 0 -0.9914424 0.1305449 0 -0.991442 0.1305487 0 -0.991442 -0.1305487 0 -0.9914424 -0.1305449 0 -0.7933701 -0.6087396 0 -0.6087757 -0.7933425 0 -0.3826918 -0.9238761 0 -0.1304784 -0.9914512 0 0.1304789 -0.9914512 0 0.1304707 -0.9914522 0 0.3826786 -0.9238817 0 0.3826905 -0.9238767 0 0.608739 -0.7933706 0 0.7933701 -0.6087396 0 1.3251e-5 0 -1 -1.64171e-5 0 -1 4.43653e-5 0 -1 -1.01641e-5 0 -1 -3.31245e-5 0 -1 1.98146e-5 0 -1 2.47694e-5 0 -1 3.95935e-5 0 -1 -4.43657e-5 0 -1 -7.03847e-5 0 -1 2.25835e-5 0 -1 1.01641e-5 0 -1 0 1 8.97577e-6 -8.55981e-5 0 1 -8.55977e-5 0 1 8.55903e-5 0 1 8.55908e-5 0 1 -1 0 0 0 1 7.55521e-7 0 1 1.58807e-7 0 1 -5.98385e-7 0 1 4.55227e-6 0 1 -3.04978e-6 0 1 1.86337e-6 0 1 -1.69372e-7 0 1 4.78708e-7 0 1 1.71045e-6 0 1 -2.04256e-6 0 1 -5.50044e-7 0 1 2.62615e-6 0 1 -5.47347e-6 0 1 1.41124e-6 0 1 1.58807e-7 0 1 9.28674e-7 0 1 2.37206e-6 0 1 6.19366e-7 0 1 -1.69374e-7 0 -1 4.05029e-6 0 -1 -4.05241e-6 0 -1 4.06901e-7 0 -1 -4.05261e-6 0 -1 4.05046e-6 0 -1 -4.06901e-7 0 -1 4.05024e-6 0 -1 -4.05211e-6 0.9914488 0.1304963 0 0.9914488 -0.1304962 0 0.9238355 -0.3827897 0 0.9240124 -0.3823626 0 0.9240491 -0.382274 -4.32492e-7 0.9240491 -0.382274 0 0.7932594 -0.608884 0 0.7932593 -0.608884 0 0.7932594 -0.608884 3.46452e-7 0.7934457 -0.608641 0 0.6087171 -0.7933874 0 0.6087082 -0.7933943 0 0.3826577 -0.9238902 0 0.1305319 -0.9914441 0 -0.1305342 -0.9914438 0 -0.1305319 -0.9914441 0 -0.3826577 -0.9238902 0 -0.3826512 -0.9238929 0 -0.608726 -0.7933806 0 -0.6087171 -0.7933874 0 -0.7934368 -0.6086527 0 -0.7934457 -0.608641 0 -0.9238355 -0.3827897 0 -0.9238421 -0.3827739 0 -0.9914465 -0.1305144 0 -0.9914488 -0.1304962 0 -0.9914488 0.1304963 0 -0.9914465 0.1305145 0 -0.9238422 0.3827738 0 -0.9238356 0.3827895 0 -0.7934455 0.6086414 0 -0.7934366 0.608653 0 -0.6087172 0.7933874 0 -0.6087261 0.7933804 0 -0.3826514 0.9238928 0 -0.382658 0.9238902 0 -0.1305321 0.9914441 0 -0.1305345 0.9914438 0 0.1305321 0.9914441 0 0.382658 0.9238902 0 0.6087083 0.7933942 0 0.6087172 0.7933874 0 0.7934455 0.6086414 0 0.7934633 0.6086181 0 0.9238291 0.3828052 0 0.9238356 0.3827895 0 0.9914488 0.1304962 0 0.9914488 -0.1304963 0 0.9238356 -0.3827895 0 0.9238291 -0.3828052 0 0.7934633 -0.6086181 0 0.7934455 -0.6086414 0 0.6087172 -0.7933874 0 0.6087083 -0.7933942 0 0.382658 -0.9238902 0 0.1305321 -0.9914441 0 -0.1305345 -0.9914438 0 -0.1305321 -0.9914441 0 -0.382658 -0.9238902 0 -0.3826514 -0.9238928 0 -0.6087261 -0.7933804 0 -0.6087172 -0.7933874 0 -0.7934366 -0.608653 0 -0.7934455 -0.6086414 0 -0.9238356 -0.3827895 0 -0.9238422 -0.3827738 0 -0.9914465 -0.1305145 0 -0.9914488 -0.1304963 0 -0.9914488 0.1304962 0 -0.9914465 0.1305144 0 -0.9238421 0.3827739 0 -0.9238355 0.3827897 0 -0.7934457 0.608641 0 -0.7934368 0.6086527 0 -0.6087171 0.7933874 0 -0.608726 0.7933806 0 -0.3826512 0.9238929 0 -0.3826577 0.9238902 0 -0.1305319 0.9914441 0 -0.1305342 0.9914438 0 0.1305319 0.9914441 0 0.3826577 0.9238902 0 0.6087082 0.7933943 0 0.6087171 0.7933874 0 0.7934457 0.608641 0 0.7932593 0.608884 0 0.7932594 0.608884 -3.46452e-7 0.7932594 0.608884 0 0.9240491 0.382274 0 0.9240124 0.3823626 0 0.9240491 0.382274 4.32492e-7 0.9238355 0.3827897 0 -0.9240124 0.3823626 0 -0.9240491 0.382274 -4.32492e-7 -0.9240491 0.382274 0 -0.7932594 0.608884 0 -0.7932593 0.608884 0 -0.7932594 0.608884 3.46452e-7 -0.6087082 0.7933943 0 0.1305342 0.9914438 0 0.3826512 0.9238929 0 0.608726 0.7933806 0 0.7934368 0.6086527 0 0.9238421 0.3827739 0 0.9914465 0.1305144 0 0.9914465 -0.1305145 0 0.9238422 -0.3827738 0 0.7934366 -0.608653 0 0.6087261 -0.7933804 0 0.3826514 -0.9238928 0 0.1305345 -0.9914438 0 -0.6087083 -0.7933942 0 -0.7934633 -0.6086181 0 -0.9238291 -0.3828052 0 -0.9238291 0.3828052 0 -0.7934633 0.6086181 0 -0.6087083 0.7933942 0 0.1305345 0.9914438 0 0.3826514 0.9238928 0 0.6087261 0.7933804 0 0.7934366 0.608653 0 0.9238422 0.3827738 0 0.9914465 0.1305145 0 0.9914465 -0.1305144 0 0.9238421 -0.3827739 0 0.7934368 -0.6086527 0 0.608726 -0.7933806 0 0.3826512 -0.9238929 0 0.1305342 -0.9914438 0 -0.6087082 -0.7933943 0 -0.7932593 -0.608884 0 -0.7932594 -0.608884 -3.46452e-7 -0.7932594 -0.608884 0 -0.9240491 -0.382274 0 -0.9240124 -0.3823626 0 -0.9240491 -0.382274 4.32492e-7 -0.9914442 -0.1305316 0 -0.9914439 -0.1305338 0 -0.991444 0.1305328 0 -0.9914443 0.1305305 0 -0.9238894 0.3826597 0 -0.9238902 0.3826578 0 -0.7933917 0.6087116 0 -0.7933906 0.608713 0 -0.6086309 0.7934536 0 -0.3827976 0.9238324 0 -0.3827971 0.9238324 0 -0.1304941 0.9914491 0 -0.1304939 0.9914491 0 0.1304939 0.9914491 0 0.3827976 0.9238324 0 0.6086306 0.7934538 0 0.7933912 0.6087123 0 0.7933908 0.6087126 0 0.92389 0.3826583 0 0.9238902 0.3826578 0 0.9914442 0.1305311 0 0.9914441 0.1305322 0 0.9914439 -0.1305332 0 0.9914442 -0.1305321 0 0.9238914 -0.382655 0 0.9238912 -0.3826555 0 0.793385 -0.6087201 0 0.7933853 -0.6087198 0 0.6086453 -0.7934424 0 0.3827843 -0.9238378 0 0.1305016 -0.9914482 0 -0.1305016 -0.9914482 0 -0.1305018 -0.9914482 0 -0.3827839 -0.923838 0 -0.3827843 -0.9238378 0 -0.6086456 -0.7934423 0 -0.7933848 -0.6087205 0 -0.7933859 -0.6087191 0 -0.9238914 -0.382655 0 -0.9238905 -0.382657 0 -0.9914442 -0.1305321 0 -0.9914439 -0.1305332 0 -0.9914441 0.1305322 0 -0.9914442 0.1305311 0 -0.92389 0.3826583 0 -0.7933908 0.6087126 0 -0.7933912 0.6087123 0 -0.6086306 0.7934538 0 0.1304941 0.9914491 0 0.3827971 0.9238324 0 0.6086309 0.7934536 0 0.7933906 0.608713 0 0.7933917 0.6087116 0 0.9238894 0.3826597 0 0.9914443 0.1305305 0 0.991444 0.1305328 0 0.9914439 -0.1305338 0 0.9914442 -0.1305316 0 0.9238905 -0.382657 0 0.7933859 -0.6087191 0 0.7933848 -0.6087205 0 0.6086456 -0.7934423 0 0.3827839 -0.923838 0 0.1305018 -0.9914482 0 -0.6086453 -0.7934424 0 -0.7933853 -0.6087198 0 -0.793385 -0.6087201 0 -0.9238912 -0.3826555 0 0.7071068 0 0.7071068 0 -0.7071068 0.7071068 -0.7071068 0 0.7071068 0 0.7071068 0.7071068 1.7401e-4 0 1 -1.30326e-4 0 1 -1.7401e-4 0 1 1.30326e-4 0 1 -1.27036e-4 0 1 5.70799e-5 0 1 -6.07632e-5 0 1 1.27036e-4 0 1 -1.16883e-4 0 1 1.27973e-4 0 1 2.33218e-6 0 1 1.7014e-4 0 1 1.70146e-4 0 1 1.70133e-4 0 1 -4.68466e-5 0 1 1.70392e-4 0 1 2.10784e-4 0 1 2.10795e-4 0 1 2.10774e-4 0 1 1.14285e-4 0 1 -7.40492e-5 0 1 -1.39411e-5 0 1 1.39398e-5 0 1 7.40571e-5 0 1 -1.14297e-4 0 1 1.24769e-4 0 1 -1.01478e-6 0 1 -1.99763e-4 0 1 1.16883e-4 0 1 -9.92462e-5 0 1 1.17844e-4 0 1 -5.70799e-5 0 1 1.07186e-4 0 1 -1.49612e-4 0 1 -1.24769e-4 0 1 1.14297e-4 0 1 -7.40571e-5 0 1 -1.39398e-5 0 1 1.39411e-5 0 1 7.40492e-5 0 1 -1.14285e-4 0 1 -2.10784e-4 0 1 -2.10774e-4 0 1 -2.10795e-4 0 1 -1.70392e-4 0 1 4.68466e-5 0 1 -1.7014e-4 0 1 -1.70133e-4 0 1 -1.70146e-4 0 1 -2.33218e-6 0 1 1.4961e-4 0 1 -1.27973e-4 0 1 2.02956e-6 0 1 6.07632e-5 0 1 -0.9914447 0.1305281 0 -0.9914448 0.1305268 0 -0.991443 -0.1305407 0 -0.9238939 -0.3826487 0 -0.9238923 -0.3826529 0 -0.7933288 -0.6087935 0 -0.7933312 -0.6087905 0 -0.6087905 -0.7933312 0 -0.6087965 -0.7933264 0 -0.3826547 -0.9238916 0 -0.3826512 -0.9238929 0 -0.1305389 -0.9914432 0 -0.1305376 -0.9914434 0 0.1305257 -0.991445 0 0.1305251 -0.9914451 0 0.3826891 -0.9238772 0 0.3826873 -0.9238779 0 0.6087434 -0.7933673 0 0.6087519 -0.7933608 0 0.7933758 -0.6087322 0 0.7933782 -0.6087291 0 0.9238905 -0.3826571 0 0.9238923 -0.3826529 0 0.9914436 -0.1305359 0 0.991443 -0.1305407 0 0.9914447 0.1305281 0 0.9914455 0.130522 0 0.9238779 0.3826873 0 0.9238748 0.382695 0 0.7934142 0.608682 0 0.7934083 0.6086899 0 0.6086844 0.7934125 0 0.608682 0.7934142 0 0.3826916 0.9238763 0 0.3826891 0.9238772 0 0.1305251 0.9914451 0 0.1305257 0.991445 0 -0.1305376 0.9914434 0 -0.1305389 0.9914432 0 -0.3826553 0.9238912 0 -0.3826547 0.9238916 0 -0.6087291 0.7933782 0 -0.7933673 0.6087434 0 -0.7933612 0.6087511 0 -0.9238779 0.3826873 0 -0.9238783 0.3826866 0 -0.991443 0.1305407 0 -0.9914447 -0.1305281 0 -0.9914448 -0.1305268 0 -0.9238798 -0.3826832 0 -0.9238765 -0.3826908 0 -0.7933649 -0.6087465 0 -0.7933636 -0.6087481 0 -0.6087291 -0.7933782 0 -0.3826588 -0.9238898 0 0.3826932 -0.9238756 0 0.608682 -0.7934142 0 0.6086844 -0.7934125 0 0.7934119 -0.6086851 0 0.7934107 -0.6086868 0 0.9238763 -0.3826916 0 0.9238765 -0.3826908 0 0.9914453 -0.1305233 0 0.9914448 -0.1305268 0 0.991443 0.1305407 0 0.9914436 0.1305359 0 0.9238923 0.3826529 0 0.9238905 0.3826571 0 0.7933782 0.6087291 0 0.7933758 0.6087322 0 0.6087458 0.7933654 0 0.6087495 0.7933625 0 0.3826873 0.9238779 0 -0.3826512 0.9238929 0 -0.6087905 0.7933312 0 -0.6087965 0.7933264 0 -0.7933312 0.6087905 0 -0.7933288 0.6087935 0 -0.9238923 0.3826529 0 -0.9238939 0.3826487 0 -0.9914453 0.1305233 0 -0.9914436 -0.1305359 0 -0.9238905 -0.3826571 0 -0.7933782 -0.6087291 0 -0.7933758 -0.6087322 0 -0.6087458 -0.7933654 0 -0.6087495 -0.7933625 0 -0.3826873 -0.9238779 0 -0.3826891 -0.9238772 0 -0.1305251 -0.9914451 0 -0.1305257 -0.991445 0 0.1305376 -0.9914434 0 0.1305389 -0.9914432 0 0.3826512 -0.9238929 0 0.3826547 -0.9238916 0 0.6087905 -0.7933312 0 0.6087965 -0.7933264 0 0.7933312 -0.6087905 0 0.7933288 -0.6087935 0 0.9238939 -0.3826487 0 0.9914448 0.1305268 0 0.9238798 0.3826832 0 0.9238765 0.3826908 0 0.7933649 0.6087465 0 0.7933636 0.6087481 0 0.6087291 0.7933782 0 0.3826588 0.9238898 0 0.3826512 0.9238929 0 0.1305389 0.9914432 0 0.1305376 0.9914434 0 -0.1305257 0.991445 0 -0.1305251 0.9914451 0 -0.3826932 0.9238756 0 -0.3826873 0.9238779 0 -0.608682 0.7934142 0 -0.6086844 0.7934125 0 -0.7934119 0.6086851 0 -0.7934107 0.6086868 0 -0.9238763 0.3826916 0 -0.9238765 0.3826908 0 -0.9914436 0.1305359 0 -0.9914455 -0.130522 0 -0.9238779 -0.3826873 0 -0.9238748 -0.382695 0 -0.7934142 -0.608682 0 -0.7934083 -0.6086899 0 -0.6086844 -0.7934125 0 -0.608682 -0.7934142 0 -0.3826916 -0.9238763 0 0.3826553 -0.9238912 0 0.6087291 -0.7933782 0 0.7933673 -0.6087434 0 0.7933612 -0.6087511 0 0.9238779 -0.3826873 0 0.9238783 -0.3826866 0 0.9914447 -0.1305281 0 0.9238939 0.3826487 0 0.7933288 0.6087935 0 0.7933312 0.6087905 0 0.6087905 0.7933312 0 0.6087965 0.7933264 0 0.3826547 0.9238916 0 -0.3826891 0.9238772 0 -0.6087434 0.7933673 0 -0.6087519 0.7933608 0 -0.7933758 0.6087322 0 -0.7933782 0.6087291 0 -0.9238905 0.3826571 0 0.9914442 0.1305321 0 0.9914439 0.1305332 0 0.9914441 -0.1305322 0 0.9914442 -0.1305311 0 0.9238902 -0.3826578 0 0.92389 -0.3826583 0 0.7933908 -0.6087126 0 0.7933912 -0.6087123 0 0.6086306 -0.7934538 0 0.3827976 -0.9238324 0 0.1304939 -0.9914491 0 -0.1304939 -0.9914491 0 -0.1304941 -0.9914491 0 -0.3827971 -0.9238324 0 -0.3827976 -0.9238324 0 -0.6086309 -0.7934536 0 -0.7933906 -0.608713 0 -0.7933917 -0.6087116 0 -0.9238902 -0.3826578 0 -0.9238894 -0.3826597 0 -0.9914443 -0.1305305 0 -0.991444 -0.1305328 0 -0.9914439 0.1305338 0 -0.9914442 0.1305316 0 -0.9238905 0.382657 0 -0.9238914 0.382655 0 -0.7933859 0.6087191 0 -0.7933848 0.6087205 0 -0.6086456 0.7934423 0 -0.3827843 0.9238378 0 -0.3827839 0.923838 0 -0.1305018 0.9914482 0 -0.1305016 0.9914482 0 0.1305016 0.9914482 0 0.3827843 0.9238378 0 0.6086453 0.7934424 0 0.7933853 0.6087198 0 0.793385 0.6087201 0 0.9238912 0.3826555 0 0.9238914 0.382655 0 0.9914442 0.1305316 0 0.9914439 0.1305338 0 0.991444 -0.1305328 0 0.9914443 -0.1305305 0 0.9238894 -0.3826597 0 0.7933917 -0.6087116 0 0.7933906 -0.608713 0 0.6086309 -0.7934536 0 0.3827971 -0.9238324 0 0.1304941 -0.9914491 0 -0.6086306 -0.7934538 0 -0.7933912 -0.6087123 0 -0.7933908 -0.6087126 0 -0.92389 -0.3826583 0 -0.9914442 -0.1305311 0 -0.9914441 -0.1305322 0 -0.9914439 0.1305332 0 -0.9914442 0.1305321 0 -0.9238912 0.3826555 0 -0.793385 0.6087201 0 -0.7933853 0.6087198 0 -0.6086453 0.7934424 0 0.1305018 0.9914482 0 0.3827839 0.923838 0 0.6086456 0.7934423 0 0.7933848 0.6087205 0 0.7933859 0.6087191 0 0.9238905 0.382657 0</float_array>
          <technique_common>
            <accessor source="#shape0-mesh-normals-array" count="960" stride="3">
              <param name="X" type="float"/>
              <param name="Y" type="float"/>
              <param name="Z" type="float"/>
            </accessor>
          </technique_common>
        </source>
        <vertices id="shape0-mesh-vertices">
          <input semantic="POSITION" source="#shape0-mesh-positions"/>
        </vertices>
        <triangles count="2140">
          <input semantic="VERTEX" source="#shape0-mesh-vertices" offset="0"/>
          <input semantic="NORMAL" source="#shape0-mesh-normals" offset="1"/>
          <p>0 0 1 0 2 0 2 0 1 0 3 0 4 1 2 1 3 1 5 2 6 2 7 2 7 0 6 0 8 0 9 3 7 3 8 3 10 4 11 4 12 4 12 4 11 4 13 4 12 5 13 5 14 5 14 5 13 5 15 5 14 6 15 6 16 6 16 6 15 6 17 6 16 7 17 7 18 7 18 7 17 7 19 7 18 8 19 8 20 8 20 8 19 8 21 8 20 9 21 9 22 9 22 10 21 11 23 12 22 13 23 13 24 13 24 14 23 14 25 14 24 15 25 15 26 15 26 16 25 16 27 16 26 17 27 18 28 19 28 20 27 21 29 22 28 23 29 23 30 23 30 23 29 23 31 23 30 24 31 24 32 24 32 25 31 25 33 25 32 26 33 26 34 26 34 26 33 26 35 26 34 27 35 27 36 27 36 28 35 28 37 28 36 29 37 29 38 29 38 30 37 30 39 30 38 31 39 31 40 31 40 31 39 31 41 31 40 32 41 32 42 32 42 33 41 33 43 33 42 34 43 34 44 34 44 34 43 34 45 34 44 35 45 35 46 35 46 36 45 37 47 38 46 39 47 39 48 39 48 40 47 41 49 42 48 43 49 44 50 45 50 46 49 46 51 46 50 47 51 48 52 49 52 50 51 50 53 50 52 51 53 51 54 51 54 51 53 51 55 51 54 52 55 52 56 52 56 52 55 52 57 52 56 53 57 53 10 53 10 53 57 53 11 53 58 54 59 54 60 54 60 55 59 55 61 55 60 56 61 56 62 56 62 57 61 57 63 57 62 58 63 58 64 58 64 59 63 59 65 59 64 60 65 60 66 60 66 61 65 61 67 61 66 62 67 62 68 62 68 63 67 63 69 63 68 64 69 64 70 64 70 65 69 65 71 65 70 66 71 66 72 66 72 67 71 67 73 67 72 68 73 68 74 68 74 69 73 69 75 69 74 70 75 70 76 70 76 71 75 71 77 71 76 72 77 72 78 72 78 73 77 73 79 73 78 74 79 74 80 74 80 75 79 75 81 75 80 76 81 76 82 76 82 77 81 77 83 77 82 78 83 78 84 78 84 79 83 79 85 79 84 80 85 80 86 80 86 80 85 80 87 80 86 81 87 81 88 81 88 81 87 81 89 81 88 82 89 82 90 82 90 83 89 83 91 83 90 84 91 84 92 84 92 85 91 85 93 85 92 86 93 86 94 86 94 87 93 87 95 87 94 88 95 88 96 88 96 89 95 89 97 89 96 90 97 90 98 90 98 91 97 91 99 91 98 92 99 92 100 92 100 93 99 93 101 93 100 94 101 94 102 94 102 95 101 95 103 95 102 96 103 96 104 96 104 97 103 97 105 97 104 98 105 98 58 98 58 98 105 98 59 98 3 99 60 99 4 99 4 100 60 100 62 100 4 101 62 101 64 101 7 102 96 102 3 102 3 103 96 103 98 103 3 104 98 104 100 104 9 99 84 99 7 99 7 105 84 105 86 105 7 106 86 106 88 106 4 107 72 107 9 107 9 108 72 108 74 108 9 109 74 109 76 109 64 110 66 110 4 110 4 111 66 111 68 111 4 112 68 112 70 112 70 99 72 99 4 99 76 99 78 99 9 99 9 113 78 113 80 113 9 114 80 114 82 114 82 99 84 99 9 99 88 99 90 99 7 99 7 115 90 115 92 115 7 116 92 116 94 116 94 117 96 117 7 117 100 99 102 99 3 99 3 118 102 118 104 118 3 119 104 119 58 119 58 120 60 120 3 120 1 121 106 121 3 121 3 121 106 121 107 121 3 121 107 121 7 121 7 121 107 121 5 121 59 122 106 122 61 122 61 122 106 122 108 122 61 122 108 122 63 122 63 122 108 122 65 122 65 122 108 122 67 122 67 122 108 122 69 122 69 122 108 122 71 122 71 122 108 122 73 122 73 122 108 122 109 122 73 122 109 122 75 122 75 122 109 122 77 122 77 122 109 122 79 122 79 122 109 122 81 122 81 122 109 122 83 122 83 122 109 122 85 122 85 122 109 122 107 122 85 122 107 122 87 122 87 122 107 122 89 122 89 122 107 122 91 122 91 122 107 122 93 122 93 122 107 122 95 122 95 122 107 122 97 122 97 122 107 122 106 122 97 122 106 122 99 122 99 122 106 122 101 122 101 122 106 122 103 122 103 122 106 122 105 122 105 122 106 122 59 122 110 3 108 3 0 3 0 3 108 3 1 3 1 3 108 3 106 3 6 99 111 99 8 99 8 123 111 123 110 123 8 124 110 124 2 124 2 99 110 99 0 99 111 1 6 1 109 1 109 1 6 1 5 1 109 1 5 1 107 1 4 121 12 121 2 121 2 125 12 125 14 125 2 126 14 126 16 126 9 121 48 121 4 121 4 127 48 127 50 127 4 128 50 128 52 128 8 121 36 121 9 121 9 129 36 129 38 129 9 130 38 130 40 130 2 121 24 121 8 121 8 131 24 131 26 131 8 132 26 132 28 132 16 121 18 121 2 121 2 133 18 133 20 133 2 134 20 134 22 134 22 135 24 135 2 135 28 136 30 136 8 136 8 137 30 137 32 137 8 138 32 138 34 138 34 121 36 121 8 121 40 139 42 139 9 139 9 140 42 140 44 140 9 141 44 141 46 141 46 121 48 121 9 121 52 142 54 142 4 142 4 143 54 143 56 143 4 144 56 144 10 144 10 121 12 121 4 121 11 145 108 145 13 145 13 145 108 145 110 145 13 145 110 145 15 145 15 145 110 145 17 145 17 145 110 145 19 145 19 146 110 146 21 146 21 145 110 145 23 145 23 147 110 147 25 147 25 145 110 145 111 145 25 148 111 148 27 148 27 145 111 145 29 145 29 149 111 149 31 149 31 145 111 145 33 145 33 145 111 145 35 145 35 145 111 145 37 145 37 145 111 145 109 145 37 145 109 145 39 145 39 145 109 145 41 145 41 145 109 145 43 145 43 145 109 145 45 145 45 145 109 145 47 145 47 150 109 150 49 150 49 145 109 145 108 145 49 151 108 151 51 151 51 145 108 145 53 145 53 145 108 145 55 145 55 145 108 145 57 145 57 145 108 145 11 145 112 152 113 152 114 152 114 152 113 152 115 152 116 121 114 121 115 121 117 153 118 153 119 153 119 152 118 152 120 152 121 145 119 145 120 145 122 154 123 154 124 154 124 155 123 155 125 155 124 156 125 156 126 156 126 157 125 157 127 157 126 158 127 158 128 158 128 159 127 159 129 159 128 160 129 160 130 160 130 160 129 160 131 160 130 161 131 161 132 161 132 162 131 162 133 162 132 163 133 163 134 163 134 163 133 163 135 163 134 164 135 165 136 166 136 167 135 167 137 167 136 168 137 168 138 168 138 169 137 170 139 171 138 172 139 172 140 172 140 172 139 172 141 172 140 173 141 173 142 173 142 174 141 174 143 174 142 175 143 175 144 175 144 176 143 176 145 176 144 177 145 177 146 177 146 178 145 178 147 178 146 179 147 179 148 179 148 180 147 180 149 180 148 181 149 181 150 181 150 182 149 182 151 182 150 183 151 183 152 183 152 184 151 184 153 184 152 185 153 185 154 185 154 186 153 186 155 186 154 187 155 187 156 187 156 187 155 187 157 187 156 188 157 188 158 188 158 188 157 188 159 188 158 189 159 190 160 191 160 192 159 192 161 192 160 193 161 193 162 193 162 194 161 195 163 196 162 197 163 198 164 199 164 200 163 201 165 202 164 203 165 203 166 203 166 203 165 203 167 203 166 204 167 204 168 204 168 205 167 205 169 205 168 206 169 206 122 206 122 207 169 207 123 207 170 208 171 208 172 208 172 208 171 208 173 208 172 209 173 209 174 209 174 209 173 209 175 209 174 71 175 71 176 71 176 71 175 71 177 71 176 210 177 210 178 210 178 211 177 211 179 211 178 212 179 212 180 212 180 212 179 212 181 212 180 213 181 213 182 213 182 214 181 214 183 214 182 215 183 215 184 215 184 216 183 216 185 216 184 80 185 80 186 80 186 217 185 217 187 217 186 218 187 218 188 218 188 81 187 81 189 81 188 219 189 219 190 219 190 219 189 219 191 219 190 220 191 220 192 220 192 221 191 221 193 221 192 222 193 222 194 222 194 222 193 222 195 222 194 223 195 223 196 223 196 224 195 224 197 224 196 225 197 225 198 225 198 226 197 226 199 226 198 227 199 227 200 227 200 93 199 93 201 93 200 95 201 95 202 95 202 228 201 228 203 228 202 229 203 229 204 229 204 229 203 229 205 229 204 98 205 98 206 98 206 230 205 230 207 230 206 231 207 231 208 231 208 54 207 54 209 54 208 232 209 232 210 232 210 233 209 233 211 233 210 234 211 234 212 234 212 235 211 235 213 235 212 236 213 236 214 236 214 236 213 236 215 236 214 237 215 237 216 237 216 237 215 237 217 237 216 64 217 64 170 64 170 65 217 65 171 65 115 99 172 99 116 99 116 238 172 238 174 238 116 99 174 99 176 99 119 99 208 99 115 99 115 239 208 239 210 239 115 240 210 240 212 240 121 99 196 99 119 99 119 99 196 99 198 99 119 241 198 241 200 241 116 99 184 99 121 99 121 242 184 242 186 242 121 243 186 243 188 243 176 99 178 99 116 99 116 244 178 244 180 244 116 245 180 245 182 245 182 99 184 99 116 99 188 99 190 99 121 99 121 246 190 246 192 246 121 99 192 99 194 99 194 99 196 99 121 99 200 99 202 99 119 99 119 247 202 247 204 247 119 248 204 248 206 248 206 99 208 99 119 99 212 249 214 249 115 249 115 250 214 250 216 250 115 251 216 251 170 251 170 99 172 99 115 99 113 3 218 3 115 3 115 3 218 3 219 3 115 252 219 252 119 252 119 3 219 3 117 3 171 253 218 253 173 253 173 122 218 122 220 122 173 254 220 254 175 254 175 122 220 122 177 122 177 122 220 122 179 122 179 122 220 122 181 122 181 122 220 122 183 122 183 122 220 122 185 122 185 122 220 122 221 122 185 122 221 122 187 122 187 122 221 122 189 122 189 122 221 122 191 122 191 122 221 122 193 122 193 122 221 122 195 122 195 255 221 255 197 255 197 122 221 122 219 122 197 256 219 256 199 256 199 122 219 122 201 122 201 122 219 122 203 122 203 122 219 122 205 122 205 122 219 122 207 122 207 122 219 122 209 122 209 122 219 122 218 122 209 122 218 122 211 122 211 122 218 122 213 122 213 122 218 122 215 122 215 122 218 122 217 122 217 122 218 122 171 122 222 145 220 145 112 145 112 257 220 257 113 257 113 145 220 145 218 145 118 99 223 99 120 99 120 99 223 99 222 99 120 99 222 99 114 99 114 99 222 99 112 99 223 121 118 121 221 121 221 121 118 121 117 121 221 121 117 121 219 121 116 3 124 3 114 3 114 258 124 258 126 258 114 259 126 259 128 259 121 260 160 260 116 260 116 261 160 261 162 261 116 262 162 262 164 262 120 3 148 3 121 3 121 263 148 263 150 263 121 264 150 264 152 264 114 265 136 265 120 265 120 266 136 266 138 266 120 267 138 267 140 267 128 3 130 3 114 3 114 268 130 268 132 268 114 269 132 269 134 269 134 270 136 270 114 270 140 3 142 3 120 3 120 271 142 271 144 271 120 272 144 272 146 272 146 3 148 3 120 3 152 3 154 3 121 3 121 273 154 273 156 273 121 274 156 274 158 274 158 3 160 3 121 3 164 3 166 3 116 3 116 275 166 275 168 275 116 276 168 276 122 276 122 3 124 3 116 3 123 1 220 1 125 1 125 1 220 1 222 1 125 1 222 1 127 1 127 1 222 1 129 1 129 277 222 277 131 277 131 278 222 278 133 278 133 1 222 1 135 1 135 1 222 1 137 1 137 279 222 279 223 279 137 1 223 1 139 1 139 1 223 1 141 1 141 280 223 280 143 280 143 1 223 1 145 1 145 1 223 1 147 1 147 1 223 1 149 1 149 1 223 1 221 1 149 1 221 1 151 1 151 1 221 1 153 1 153 1 221 1 155 1 155 281 221 281 157 281 157 1 221 1 159 1 159 1 221 1 161 1 161 282 221 282 220 282 161 1 220 1 163 1 163 1 220 1 165 1 165 283 220 283 167 283 167 284 220 284 169 284 169 1 220 1 123 1 224 285 225 285 226 285 226 285 225 285 227 285 228 3 226 3 227 3 229 286 230 286 231 286 231 285 230 285 232 285 233 1 231 1 232 1 234 287 235 287 236 287 236 287 235 287 237 287 236 288 237 288 238 288 238 288 237 288 239 288 238 26 239 26 240 26 240 26 239 26 241 26 240 24 241 24 242 24 242 24 241 24 243 24 242 289 243 289 244 289 244 289 243 289 245 289 244 290 245 290 246 290 246 18 245 19 247 17 246 16 247 16 248 16 248 15 247 15 249 15 248 14 249 14 250 14 250 13 249 13 251 13 250 12 251 10 252 11 252 291 251 292 253 293 252 294 253 294 254 294 254 294 253 294 255 294 254 7 255 7 256 7 256 295 255 295 257 295 256 6 257 6 258 6 258 6 257 6 259 6 258 296 259 296 260 296 260 297 259 297 261 297 260 298 261 298 262 298 262 299 261 299 263 299 262 53 263 53 264 53 264 53 263 53 265 53 264 300 265 300 266 300 266 52 265 52 267 52 266 301 267 301 268 301 268 301 267 301 269 301 268 50 269 50 270 50 270 48 269 49 271 47 270 46 271 46 272 46 272 44 271 45 273 43 272 42 273 40 274 41 274 39 273 39 275 39 274 38 275 36 276 37 276 35 275 35 277 35 276 302 277 302 278 302 278 302 277 302 279 302 278 33 279 33 280 33 280 33 279 33 281 33 280 31 281 31 234 31 234 31 281 31 235 31 282 303 283 303 284 303 284 304 283 304 285 304 284 305 285 305 286 305 286 306 285 306 287 306 286 307 287 307 288 307 288 81 287 81 289 81 288 308 289 308 290 308 290 309 289 309 291 309 290 310 291 310 292 310 292 311 291 311 293 311 292 86 293 86 294 86 294 222 293 222 295 222 294 312 295 312 296 312 296 313 295 313 297 313 296 314 297 314 298 314 298 315 297 315 299 315 298 227 299 227 300 227 300 93 299 93 301 93 300 316 301 316 302 316 302 317 301 317 303 317 302 318 303 318 304 318 304 319 303 319 305 319 304 98 305 98 306 98 306 320 305 320 307 320 306 321 307 321 308 321 308 322 307 322 309 322 308 323 309 323 310 323 310 323 309 323 311 323 310 59 311 59 312 59 312 59 311 59 313 59 312 324 313 324 314 324 314 325 313 325 315 325 314 326 315 326 316 326 316 327 315 327 317 327 316 64 317 64 318 64 318 328 317 328 319 328 318 329 319 329 320 329 320 208 319 208 321 208 320 330 321 330 322 330 322 331 321 331 323 331 322 332 323 332 324 332 324 71 323 71 325 71 324 333 325 333 326 333 326 334 325 334 327 334 326 335 327 335 328 335 328 336 327 336 329 336 328 76 329 76 282 76 282 76 329 76 283 76 227 99 284 99 228 99 228 337 284 337 286 337 228 338 286 338 288 338 231 339 320 339 227 339 227 340 320 340 322 340 227 341 322 341 324 341 233 99 308 99 231 99 231 342 308 342 310 342 231 343 310 343 312 343 228 124 296 124 233 124 233 344 296 344 298 344 233 345 298 345 300 345 288 346 290 346 228 346 228 347 290 347 292 347 228 348 292 348 294 348 294 99 296 99 228 99 300 99 302 99 233 99 233 349 302 349 304 349 233 350 304 350 306 350 306 99 308 99 233 99 312 99 314 99 231 99 231 351 314 351 316 351 231 352 316 352 318 352 318 353 320 353 231 353 324 99 326 99 227 99 227 354 326 354 328 354 227 355 328 355 282 355 282 356 284 356 227 356 225 145 330 145 227 145 227 145 330 145 331 145 227 145 331 145 231 145 231 145 331 145 229 145 283 122 330 122 285 122 285 122 330 122 332 122 285 122 332 122 287 122 287 122 332 122 289 122 289 122 332 122 291 122 291 122 332 122 293 122 293 122 332 122 295 122 295 122 332 122 297 122 297 122 332 122 333 122 297 122 333 122 299 122 299 122 333 122 301 122 301 122 333 122 303 122 303 122 333 122 305 122 305 122 333 122 307 122 307 122 333 122 309 122 309 122 333 122 331 122 309 122 331 122 311 122 311 122 331 122 313 122 313 122 331 122 315 122 315 122 331 122 317 122 317 122 331 122 319 122 319 122 331 122 321 122 321 122 331 122 330 122 321 122 330 122 323 122 323 122 330 122 325 122 325 122 330 122 327 122 327 122 330 122 329 122 329 122 330 122 283 122 334 1 332 1 224 1 224 1 332 1 225 1 225 1 332 1 330 1 230 99 335 99 232 99 232 357 335 357 334 357 232 107 334 107 226 107 226 99 334 99 224 99 335 3 230 3 333 3 333 3 230 3 229 3 333 3 229 3 331 3 228 145 236 145 226 145 226 358 236 358 238 358 226 359 238 359 240 359 233 145 272 145 228 145 228 360 272 360 274 360 228 361 274 361 276 361 232 145 260 145 233 145 233 362 260 362 262 362 233 363 262 363 264 363 226 145 248 145 232 145 232 364 248 364 250 364 232 365 250 365 252 365 240 145 242 145 226 145 226 366 242 366 244 366 226 367 244 367 246 367 246 368 248 368 226 368 252 369 254 369 232 369 232 370 254 370 256 370 232 371 256 371 258 371 258 145 260 145 232 145 264 372 266 372 233 372 233 373 266 373 268 373 233 374 268 374 270 374 270 145 272 145 233 145 276 375 278 375 228 375 228 376 278 376 280 376 228 377 280 377 234 377 234 145 236 145 228 145 235 121 332 121 237 121 237 121 332 121 334 121 237 121 334 121 239 121 239 121 334 121 241 121 241 121 334 121 243 121 243 378 334 378 245 378 245 121 334 121 247 121 247 379 334 379 249 379 249 121 334 121 335 121 249 380 335 380 251 380 251 121 335 121 253 121 253 381 335 381 255 381 255 121 335 121 257 121 257 121 335 121 259 121 259 121 335 121 261 121 261 121 335 121 333 121 261 121 333 121 263 121 263 121 333 121 265 121 265 121 333 121 267 121 267 121 333 121 269 121 269 121 333 121 271 121 271 382 333 382 273 382 273 121 333 121 332 121 273 383 332 383 275 383 275 121 332 121 277 121 277 121 332 121 279 121 279 121 332 121 281 121 281 121 332 121 235 121 336 384 337 384 338 384 338 384 337 384 339 384 340 145 338 145 339 145 341 385 342 385 343 385 343 384 342 384 344 384 345 121 343 121 344 121 346 386 347 386 348 386 348 387 347 387 349 387 348 388 349 388 350 388 350 389 349 389 351 389 350 178 351 178 352 178 352 177 351 177 353 177 352 176 353 176 354 176 354 176 353 176 355 176 354 390 355 390 356 390 356 391 355 391 357 391 356 172 357 172 358 172 358 172 357 172 359 172 358 171 359 169 360 170 360 168 359 168 361 168 360 167 361 167 362 167 362 165 361 166 363 164 362 163 363 163 364 163 364 163 363 163 365 163 364 392 365 392 366 392 366 393 365 393 367 393 366 394 367 394 368 394 368 160 367 160 369 160 368 159 369 159 370 159 370 158 369 158 371 158 370 395 371 395 372 395 372 396 371 396 373 396 372 397 373 397 374 397 374 398 373 398 375 398 374 207 375 207 376 207 376 206 375 206 377 206 376 399 377 399 378 399 378 204 377 204 379 204 378 400 379 400 380 400 380 400 379 400 381 400 380 401 381 401 382 401 382 401 381 401 383 401 382 196 383 194 384 195 384 193 383 193 385 193 384 192 385 192 386 192 386 190 385 191 387 189 386 402 387 403 388 404 388 405 387 406 389 407 388 408 389 408 390 408 390 408 389 408 391 408 390 186 391 186 392 186 392 409 391 409 393 409 392 184 393 184 346 184 346 183 393 183 347 183 394 89 395 89 396 89 396 89 395 89 397 89 396 410 397 410 398 410 398 410 397 410 399 410 398 93 399 93 400 93 400 93 399 93 401 93 400 411 401 411 402 411 402 412 401 412 403 412 402 413 403 413 404 413 404 413 403 413 405 413 404 414 405 414 406 414 406 415 405 415 407 415 406 416 407 416 408 416 408 417 407 417 409 417 408 323 409 323 410 323 410 418 409 418 411 418 410 419 411 419 412 419 412 59 411 59 413 59 412 420 413 420 414 420 414 420 413 420 415 420 414 421 415 421 416 421 416 422 415 422 417 422 416 65 417 65 418 65 418 65 417 65 419 65 418 423 419 423 420 423 420 424 419 424 421 424 420 425 421 425 422 425 422 426 421 426 423 426 422 70 423 70 424 70 424 71 423 71 425 71 424 334 425 334 426 334 426 427 425 427 427 427 426 428 427 428 428 428 428 428 427 428 429 428 428 76 429 76 430 76 430 429 429 429 431 429 430 430 431 430 432 430 432 303 431 303 433 303 432 431 433 431 434 431 434 432 433 432 435 432 434 433 435 433 436 433 436 434 435 434 437 434 436 435 437 435 438 435 438 435 437 435 439 435 438 436 439 436 440 436 440 436 439 436 441 436 440 86 441 86 394 86 394 222 441 222 395 222 339 99 396 99 340 99 340 437 396 437 398 437 340 99 398 99 400 99 343 99 432 99 339 99 339 438 432 438 434 438 339 439 434 439 436 439 345 99 420 99 343 99 343 99 420 99 422 99 343 440 422 440 424 440 340 99 408 99 345 99 345 441 408 441 410 441 345 245 410 245 412 245 400 99 402 99 340 99 340 442 402 442 404 442 340 243 404 243 406 243 406 99 408 99 340 99 412 99 414 99 345 99 345 443 414 443 416 443 345 99 416 99 418 99 418 99 420 99 345 99 424 99 426 99 343 99 343 444 426 444 428 444 343 445 428 445 430 445 430 99 432 99 343 99 436 446 438 446 339 446 339 447 438 447 440 447 339 448 440 448 394 448 394 99 396 99 339 99 337 1 442 1 339 1 339 1 442 1 443 1 339 449 443 449 343 449 343 1 443 1 341 1 395 450 442 450 397 450 397 122 442 122 444 122 397 451 444 451 399 451 399 122 444 122 401 122 401 122 444 122 403 122 403 122 444 122 405 122 405 122 444 122 407 122 407 122 444 122 409 122 409 122 444 122 445 122 409 122 445 122 411 122 411 122 445 122 413 122 413 122 445 122 415 122 415 122 445 122 417 122 417 122 445 122 419 122 419 452 445 452 421 452 421 122 445 122 443 122 421 453 443 453 423 453 423 122 443 122 425 122 425 122 443 122 427 122 427 122 443 122 429 122 429 122 443 122 431 122 431 122 443 122 433 122 433 122 443 122 442 122 433 122 442 122 435 122 435 122 442 122 437 122 437 122 442 122 439 122 439 122 442 122 441 122 441 122 442 122 395 122 446 121 444 121 336 121 336 454 444 454 337 454 337 121 444 121 442 121 342 99 447 99 344 99 344 99 447 99 446 99 344 99 446 99 338 99 338 99 446 99 336 99 447 145 342 145 445 145 445 145 342 145 341 145 445 145 341 145 443 145 340 1 348 1 338 1 338 455 348 455 350 455 338 456 350 456 352 456 345 457 384 457 340 457 340 458 384 458 386 458 340 459 386 459 388 459 344 1 372 1 345 1 345 460 372 460 374 460 345 461 374 461 376 461 338 462 360 462 344 462 344 463 360 463 362 463 344 464 362 464 364 464 352 1 354 1 338 1 338 465 354 465 356 465 338 466 356 466 358 466 358 467 360 467 338 467 364 1 366 1 344 1 344 468 366 468 368 468 344 469 368 469 370 469 370 1 372 1 344 1 376 1 378 1 345 1 345 470 378 470 380 470 345 471 380 471 382 471 382 1 384 1 345 1 388 1 390 1 340 1 340 472 390 472 392 472 340 473 392 473 346 473 346 1 348 1 340 1 347 3 444 3 349 3 349 3 444 3 446 3 349 3 446 3 351 3 351 3 446 3 353 3 353 474 446 474 355 474 355 475 446 475 357 475 357 3 446 3 359 3 359 3 446 3 361 3 361 476 446 476 447 476 361 3 447 3 363 3 363 3 447 3 365 3 365 477 447 477 367 477 367 3 447 3 369 3 369 3 447 3 371 3 371 3 447 3 373 3 373 3 447 3 445 3 373 3 445 3 375 3 375 3 445 3 377 3 377 3 445 3 379 3 379 478 445 478 381 478 381 3 445 3 383 3 383 3 445 3 385 3 385 479 445 479 444 479 385 3 444 3 387 3 387 3 444 3 389 3 389 480 444 480 391 480 391 481 444 481 393 481 393 3 444 3 347 3 448 482 449 482 450 482 450 482 449 482 451 482 450 483 451 483 452 483 452 483 451 483 453 483 452 484 453 484 454 484 454 485 453 486 455 487 454 488 455 489 456 490 456 491 455 491 457 491 456 492 457 492 458 492 458 493 457 493 459 493 458 494 459 494 460 494 460 494 459 494 461 494 460 495 461 495 462 495 462 495 461 495 463 495 462 496 463 496 464 496 464 497 463 497 465 497 464 498 465 498 466 498 466 499 465 499 467 499 466 500 467 500 468 500 468 501 467 501 469 501 468 502 469 502 470 502 470 503 469 503 471 503 470 504 471 504 472 504 472 505 471 505 473 505 472 506 473 506 474 506 474 507 473 507 475 507 474 508 475 508 476 508 476 509 475 509 477 509 476 510 477 510 478 510 478 511 477 511 479 511 478 512 479 512 480 512 480 513 479 513 481 513 480 514 481 514 482 514 482 515 481 515 483 515 482 516 483 516 484 516 484 517 483 517 485 517 484 518 485 518 486 518 486 519 485 519 487 519 486 520 487 520 488 520 488 520 487 520 489 520 488 521 489 521 490 521 490 521 489 521 491 521 490 522 491 522 492 522 492 523 491 523 493 523 492 524 493 524 494 524 494 525 493 525 495 525 494 526 495 526 448 526 448 527 495 527 449 527 452 99 472 99 450 99 450 99 472 99 474 99 450 99 474 99 448 99 448 99 474 99 476 99 448 99 476 99 494 99 494 99 476 99 478 99 494 99 478 99 492 99 492 99 478 99 480 99 492 99 480 99 490 99 490 99 480 99 482 99 490 99 482 99 488 99 488 99 482 99 484 99 488 99 484 99 486 99 472 99 452 99 470 99 470 99 452 99 454 99 470 99 454 99 468 99 468 99 454 99 456 99 468 99 456 99 466 99 466 99 456 99 458 99 466 99 458 99 464 99 464 99 458 99 460 99 464 99 460 99 462 99 496 528 497 528 498 528 498 528 497 528 499 528 498 529 499 529 500 529 500 529 499 529 501 529 500 530 501 530 502 530 502 531 501 531 503 531 502 532 503 532 504 532 504 533 503 533 505 533 504 534 505 534 506 534 506 535 505 535 507 535 506 536 507 536 508 536 508 536 507 536 509 536 508 537 509 537 510 537 510 537 509 537 511 537 510 538 511 538 512 538 512 539 511 539 513 539 512 540 513 540 514 540 514 541 513 541 515 541 514 542 515 542 516 542 516 543 515 543 517 543 516 544 517 544 518 544 518 545 517 545 519 545 518 546 519 546 520 546 520 547 519 547 521 547 520 548 521 548 522 548 522 549 521 549 523 549 522 550 523 550 524 550 524 551 523 551 525 551 524 552 525 552 526 552 526 553 525 553 527 553 526 554 527 554 528 554 528 555 527 555 529 555 528 556 529 556 530 556 530 557 529 557 531 557 530 558 531 558 532 558 532 559 531 559 533 559 532 560 533 560 534 560 534 561 533 561 535 561 534 562 535 562 536 562 536 562 535 562 537 562 536 563 537 563 538 563 538 563 537 563 539 563 538 564 539 564 540 564 540 565 539 565 541 565 540 566 541 566 542 566 542 567 541 568 543 569 542 570 543 571 496 572 496 573 543 573 497 573 500 99 520 99 498 99 498 99 520 99 522 99 498 99 522 99 496 99 496 99 522 99 524 99 496 99 524 99 542 99 542 99 524 99 526 99 542 99 526 99 540 99 540 99 526 99 528 99 540 99 528 99 538 99 538 99 528 99 530 99 538 99 530 99 536 99 536 99 530 99 532 99 536 99 532 99 534 99 520 99 500 99 518 99 518 99 500 99 502 99 518 99 502 99 516 99 516 99 502 99 504 99 516 99 504 99 514 99 514 99 504 99 506 99 514 99 506 99 512 99 512 99 506 99 508 99 512 99 508 99 510 99 544 549 545 549 546 549 546 549 545 549 547 549 546 550 547 550 548 550 548 550 547 550 549 550 548 553 549 553 550 553 550 574 549 575 551 576 550 577 551 578 552 579 552 554 551 554 553 554 552 556 553 556 554 556 554 580 553 580 555 580 554 559 555 559 556 559 556 559 555 559 557 559 556 560 557 560 558 560 558 560 557 560 559 560 558 581 559 581 560 581 560 562 559 562 561 562 560 563 561 563 562 563 562 582 561 582 563 582 562 583 563 583 564 583 564 565 563 565 565 565 564 584 565 584 566 584 566 566 565 566 567 566 566 573 567 573 568 573 568 585 567 585 569 585 568 586 569 586 570 586 570 528 569 528 571 528 570 529 571 529 572 529 572 587 571 587 573 587 572 588 573 588 574 588 574 530 573 530 575 530 574 533 575 533 576 533 576 589 575 589 577 589 576 534 577 534 578 534 578 590 577 590 579 590 578 591 579 591 580 591 580 536 579 536 581 536 580 537 581 537 582 537 582 592 581 592 583 592 582 539 583 539 584 539 584 539 583 539 585 539 584 540 585 540 586 540 586 540 585 540 587 540 586 593 587 593 588 593 588 543 587 543 589 543 588 545 589 545 590 545 590 594 589 594 591 594 590 595 591 595 544 595 544 546 591 546 545 546 548 99 568 99 546 99 546 99 568 99 570 99 546 99 570 99 544 99 544 99 570 99 572 99 544 99 572 99 590 99 590 99 572 99 574 99 590 99 574 99 588 99 588 99 574 99 576 99 588 99 576 99 586 99 586 99 576 99 578 99 586 99 578 99 584 99 584 99 578 99 580 99 584 99 580 99 582 99 568 99 548 99 566 99 566 99 548 99 550 99 566 99 550 99 564 99 564 99 550 99 552 99 564 99 552 99 562 99 562 99 552 99 554 99 562 99 554 99 560 99 560 99 554 99 556 99 560 99 556 99 558 99 592 507 593 507 594 507 594 507 593 507 595 507 594 508 595 508 596 508 596 508 595 508 597 508 596 511 597 511 598 511 598 596 597 596 599 596 598 597 599 597 600 597 600 512 599 512 601 512 600 514 601 514 602 514 602 598 601 598 603 598 602 517 603 517 604 517 604 517 603 517 605 517 604 518 605 518 606 518 606 518 605 518 607 518 606 599 607 599 608 599 608 520 607 520 609 520 608 521 609 521 610 521 610 600 609 600 611 600 610 601 611 601 612 601 612 523 611 523 613 523 612 602 613 602 614 602 614 524 613 524 615 524 614 527 615 527 616 527 616 603 615 603 617 603 616 604 617 604 618 604 618 482 617 482 619 482 618 483 619 483 620 483 620 605 619 605 621 605 620 606 621 606 622 606 622 484 621 484 623 484 622 491 623 491 624 491 624 607 623 607 625 607 624 492 625 492 626 492 626 608 625 608 627 608 626 609 627 609 628 609 628 494 627 494 629 494 628 495 629 495 630 495 630 610 629 610 631 610 630 497 631 497 632 497 632 497 631 497 633 497 632 498 633 498 634 498 634 498 633 498 635 498 634 611 635 611 636 611 636 501 635 501 637 501 636 503 637 503 638 503 638 612 637 613 639 614 638 615 639 616 592 617 592 504 639 504 593 504 596 99 616 99 594 99 594 99 616 99 618 99 594 99 618 99 592 99 592 99 618 99 620 99 592 99 620 99 638 99 638 99 620 99 622 99 638 99 622 99 636 99 636 99 622 99 624 99 636 99 624 99 634 99 634 99 624 99 626 99 634 99 626 99 632 99 632 99 626 99 628 99 632 99 628 99 630 99 616 99 596 99 614 99 614 99 596 99 598 99 614 99 598 99 612 99 612 99 598 99 600 99 612 99 600 99 610 99 610 99 600 99 602 99 610 99 602 99 608 99 608 99 602 99 604 99 608 99 604 99 606 99 640 618 641 618 642 618 642 619 641 619 643 619 642 620 643 620 644 620 644 621 643 621 645 621 644 622 645 622 646 622 646 623 645 623 647 623 646 624 647 624 648 624 648 625 647 625 649 625 648 626 649 626 650 626 650 626 649 626 651 626 650 627 651 627 652 627 652 628 651 628 653 628 652 629 653 629 654 629 654 630 653 630 655 630 654 631 655 631 656 631 656 631 655 631 657 631 656 632 657 632 658 632 658 632 657 632 659 632 658 633 659 633 660 633 660 633 659 633 661 633 660 634 661 634 662 634 662 635 661 635 663 635 662 636 663 636 664 636 664 637 663 637 665 637 664 638 665 638 666 638 666 639 665 639 667 639 666 640 667 640 668 640 668 641 667 641 669 641 668 642 669 642 670 642 670 643 669 643 671 643 670 644 671 644 672 644 672 645 671 645 673 645 672 646 673 646 674 646 674 646 673 646 675 646 674 647 675 647 676 647 676 647 675 647 677 647 676 648 677 648 678 648 678 648 677 648 679 648 678 649 679 649 680 649 680 650 679 650 681 650 680 651 681 651 682 651 682 652 681 652 683 652 682 653 683 653 684 653 684 653 683 653 685 653 684 654 685 654 686 654 686 655 685 655 687 655 686 656 687 656 640 656 640 657 687 657 641 657 644 99 664 99 642 99 642 99 664 99 666 99 642 99 666 99 640 99 640 99 666 99 668 99 640 99 668 99 686 99 686 99 668 99 670 99 686 99 670 99 684 99 684 99 670 99 672 99 684 99 672 99 682 99 682 99 672 99 674 99 682 99 674 99 680 99 680 99 674 99 676 99 680 99 676 99 678 99 664 99 644 99 662 99 662 99 644 99 646 99 662 99 646 99 660 99 660 99 646 99 648 99 660 99 648 99 658 99 658 99 648 99 650 99 658 99 650 99 656 99 656 99 650 99 652 99 656 99 652 99 654 99 688 658 689 658 690 658 690 659 689 659 691 659 690 660 691 660 692 660 692 661 691 661 693 661 692 623 693 623 694 623 694 662 693 662 695 662 694 663 695 663 696 663 696 664 695 664 697 664 696 665 697 665 698 665 698 665 697 665 699 665 698 627 699 627 700 627 700 627 699 627 701 627 700 630 701 630 702 630 702 630 701 630 703 630 702 631 703 631 704 631 704 666 703 666 705 666 704 667 705 667 706 667 706 632 705 632 707 632 706 668 707 668 708 668 708 668 707 668 709 668 708 669 709 669 710 669 710 670 709 670 711 670 710 637 711 637 712 637 712 671 711 671 713 671 712 672 713 672 714 672 714 673 713 673 715 673 714 674 715 674 716 674 716 675 715 675 717 675 716 676 717 676 718 676 718 642 717 642 719 642 718 677 719 677 720 677 720 678 719 678 721 678 720 679 721 679 722 679 722 679 721 679 723 679 722 647 723 647 724 647 724 680 723 680 725 680 724 681 725 681 726 681 726 648 725 648 727 648 726 649 727 649 728 649 728 649 727 649 729 649 728 652 729 652 730 652 730 652 729 652 731 652 730 682 731 682 732 682 732 682 731 682 733 682 732 683 733 683 734 683 734 684 733 684 735 684 734 685 735 685 688 685 688 656 735 656 689 656 692 99 712 99 690 99 690 99 712 99 714 99 690 99 714 99 688 99 688 99 714 99 716 99 688 99 716 99 734 99 734 99 716 99 718 99 734 99 718 99 732 99 732 99 718 99 720 99 732 99 720 99 730 99 730 99 720 99 722 99 730 99 722 99 728 99 728 99 722 99 724 99 728 99 724 99 726 99 712 99 692 99 710 99 710 99 692 99 694 99 710 99 694 99 708 99 708 99 694 99 696 99 708 99 696 99 706 99 706 99 696 99 698 99 706 99 698 99 704 99 704 99 698 99 700 99 704 99 700 99 702 99 736 686 737 686 738 686 738 686 737 686 739 686 736 687 740 687 737 687 737 687 740 687 741 687 740 688 742 688 741 688 741 688 742 688 743 688 739 689 743 689 738 689 738 689 743 689 742 689 743 1 739 1 744 1 744 1 739 1 745 1 739 145 737 145 745 145 745 145 737 145 746 145 747 122 748 122 749 122 749 122 748 122 750 122 749 122 750 122 751 122 751 122 750 122 752 122 751 122 752 122 753 122 753 122 752 122 754 122 753 122 754 122 755 122 755 122 754 122 756 122 755 122 756 122 757 122 757 122 756 122 758 122 757 122 758 122 759 122 759 122 758 122 760 122 759 122 760 122 761 122 761 122 760 122 762 122 761 122 762 122 763 122 763 122 762 122 764 122 763 122 764 122 765 122 765 122 764 122 766 122 765 122 766 122 767 122 767 122 766 122 768 122 767 122 768 122 769 122 769 122 768 122 770 122 769 122 770 122 771 122 771 122 770 122 772 122 771 122 772 122 773 122 773 122 772 122 774 122 773 122 774 122 742 122 742 122 774 122 738 122 738 690 774 690 775 690 738 691 775 691 776 691 748 122 747 122 777 122 777 122 747 122 778 122 777 122 778 122 779 122 779 122 778 122 780 122 779 122 780 122 781 122 781 122 780 122 782 122 781 122 782 122 783 122 783 122 782 122 784 122 783 122 784 122 736 122 736 122 784 122 740 122 740 692 784 692 785 692 740 693 785 693 786 693 786 694 787 694 740 694 740 695 787 695 788 695 740 696 788 696 789 696 789 697 790 697 740 697 740 698 790 698 791 698 740 699 791 699 792 699 740 700 792 700 793 700 793 701 792 702 794 703 793 122 794 122 795 122 795 704 794 704 796 704 795 705 796 705 797 705 797 122 796 122 798 122 798 706 796 707 799 708 798 709 799 709 800 709 800 710 799 710 801 710 800 122 801 122 802 122 802 711 801 711 803 711 802 712 803 712 804 712 802 122 804 122 805 122 805 713 804 713 806 713 805 714 806 714 807 714 807 715 806 715 755 715 807 122 755 122 757 122 740 716 793 716 742 716 742 699 793 699 808 699 742 698 808 698 809 698 809 697 810 697 742 697 742 696 810 696 811 696 742 695 811 695 812 695 812 694 813 694 742 694 742 693 813 693 814 693 742 692 814 692 773 692 815 717 816 717 736 717 736 718 816 718 817 718 736 719 817 719 818 719 818 720 819 720 736 720 736 721 819 721 820 721 736 722 820 722 821 722 821 723 822 723 736 723 736 690 822 690 783 690 758 122 756 122 823 122 823 724 756 724 824 724 823 725 824 725 825 725 825 726 824 726 826 726 825 122 826 122 827 122 827 727 826 727 828 727 827 728 828 728 829 728 827 122 829 122 830 122 830 729 829 729 831 729 830 730 831 730 832 730 832 731 831 732 833 733 832 122 833 122 834 122 834 734 833 734 835 734 835 735 833 735 836 735 835 122 836 122 837 122 837 736 836 737 815 738 837 739 815 739 736 739 838 740 839 740 738 740 738 741 839 741 837 741 738 742 837 742 736 742 776 697 840 697 738 697 738 721 840 721 841 721 738 743 841 743 842 743 842 694 838 694 738 694 843 744 837 744 844 744 844 745 837 745 839 745 844 746 839 746 845 746 845 746 839 746 838 746 845 747 838 747 846 747 846 748 838 748 842 748 846 749 842 749 847 749 847 750 842 750 841 750 847 751 841 751 848 751 848 752 841 752 840 752 848 753 840 753 849 753 849 754 840 754 776 754 849 755 776 755 850 755 850 756 776 756 775 756 850 757 775 757 851 757 851 758 775 758 774 758 851 759 774 759 852 759 852 760 774 760 772 760 852 761 772 761 853 761 853 762 772 762 770 762 853 763 770 763 854 763 854 764 770 764 768 764 854 765 768 765 855 765 855 766 768 766 766 766 855 767 766 767 856 767 856 768 766 768 764 768 856 769 764 769 857 769 857 770 764 770 762 770 857 771 762 771 858 771 858 772 762 772 760 772 858 773 760 773 859 773 859 774 760 774 758 774 859 775 758 775 860 775 860 776 758 776 823 776 860 777 823 777 861 777 861 778 823 778 825 778 861 779 825 779 862 779 862 780 825 780 827 780 862 781 827 781 863 781 863 782 827 782 830 782 863 783 830 783 864 783 864 784 830 784 832 784 864 785 832 785 865 785 865 785 832 785 834 785 865 786 834 786 866 786 866 787 834 787 835 787 866 788 835 788 843 788 843 789 835 789 837 789 845 122 855 122 844 122 844 122 855 122 856 122 844 122 856 122 843 122 843 122 856 122 857 122 843 122 857 122 866 122 866 122 857 122 858 122 866 122 858 122 865 122 865 122 858 122 859 122 865 122 859 122 864 122 864 122 859 122 860 122 864 122 860 122 863 122 863 122 860 122 861 122 863 122 861 122 862 122 855 122 845 122 854 122 854 122 845 122 846 122 854 122 846 122 853 122 853 122 846 122 847 122 853 122 847 122 852 122 852 122 847 122 848 122 852 122 848 122 851 122 851 122 848 122 849 122 851 122 849 122 850 122 867 790 817 790 868 790 868 790 817 790 816 790 868 791 816 791 869 791 869 792 816 792 815 792 869 793 815 793 870 793 870 794 815 794 836 794 870 795 836 795 871 795 871 796 836 796 833 796 871 797 833 797 872 797 872 797 833 797 831 797 872 798 831 798 873 798 873 754 831 754 829 754 873 755 829 755 874 755 874 756 829 756 828 756 874 757 828 757 875 757 875 758 828 758 826 758 875 799 826 799 876 799 876 760 826 760 824 760 876 800 824 800 877 800 877 801 824 801 756 801 877 802 756 802 878 802 878 803 756 803 754 803 878 804 754 804 879 804 879 805 754 805 752 805 879 806 752 806 880 806 880 807 752 807 750 807 880 808 750 808 881 808 881 809 750 809 748 809 881 810 748 810 882 810 882 811 748 811 777 811 882 812 777 812 883 812 883 813 777 813 779 813 883 814 779 814 884 814 884 815 779 815 781 815 884 816 781 816 885 816 885 778 781 778 783 778 885 779 783 779 886 779 886 780 783 780 822 780 886 781 822 781 887 781 887 782 822 782 821 782 887 817 821 817 888 817 888 784 821 784 820 784 888 818 820 818 889 818 889 819 820 819 819 819 889 820 819 820 890 820 890 821 819 821 818 821 890 822 818 822 867 822 867 823 818 823 817 823 869 122 879 122 868 122 868 122 879 122 880 122 868 122 880 122 867 122 867 122 880 122 881 122 867 122 881 122 890 122 890 122 881 122 882 122 890 122 882 122 889 122 889 122 882 122 883 122 889 122 883 122 888 122 888 122 883 122 884 122 888 122 884 122 887 122 887 122 884 122 885 122 887 122 885 122 886 122 879 122 869 122 878 122 878 122 869 122 870 122 878 122 870 122 877 122 877 122 870 122 871 122 877 122 871 122 876 122 876 122 871 122 872 122 876 122 872 122 875 122 875 122 872 122 873 122 875 122 873 122 874 122 891 824 761 824 892 824 892 745 761 745 763 745 892 746 763 746 893 746 893 825 763 825 765 825 893 748 765 748 894 748 894 826 765 826 767 826 894 827 767 827 895 827 895 828 767 828 769 828 895 829 769 829 896 829 896 830 769 830 771 830 896 831 771 831 897 831 897 832 771 832 773 832 897 833 773 833 898 833 898 834 773 834 814 834 898 835 814 835 899 835 899 836 814 836 813 836 899 837 813 837 900 837 900 838 813 838 812 838 900 839 812 839 901 839 901 840 812 840 811 840 901 841 811 841 902 841 902 842 811 842 810 842 902 766 810 766 903 766 903 843 810 843 809 843 903 768 809 768 904 768 904 768 809 768 808 768 904 769 808 769 905 769 905 844 808 844 793 844 905 845 793 845 906 845 906 846 793 846 795 846 906 847 795 847 907 847 907 848 795 848 797 848 907 849 797 849 908 849 908 849 797 849 798 849 908 850 798 850 909 850 909 851 798 851 800 851 909 852 800 852 910 852 910 853 800 853 802 853 910 854 802 854 911 854 911 855 802 855 805 855 911 856 805 856 912 856 912 857 805 857 807 857 912 858 807 858 913 858 913 859 807 859 757 859 913 860 757 860 914 860 914 861 757 861 759 861 914 862 759 862 891 862 891 863 759 863 761 863 893 122 903 122 892 122 892 122 903 122 904 122 892 122 904 122 891 122 891 122 904 122 905 122 891 122 905 122 914 122 914 122 905 122 906 122 914 122 906 122 913 122 913 122 906 122 907 122 913 122 907 122 912 122 912 122 907 122 908 122 912 122 908 122 911 122 911 122 908 122 909 122 911 122 909 122 910 122 903 122 893 122 902 122 902 122 893 122 894 122 902 122 894 122 901 122 901 122 894 122 895 122 901 122 895 122 900 122 900 122 895 122 896 122 900 122 896 122 899 122 899 122 896 122 897 122 899 122 897 122 898 122 915 864 747 864 916 864 916 790 747 790 749 790 916 791 749 791 917 791 917 865 749 865 751 865 917 866 751 866 918 866 918 867 751 867 753 867 918 868 753 868 919 868 919 869 753 869 755 869 919 870 755 870 920 870 920 871 755 871 806 871 920 872 806 872 921 872 921 832 806 832 804 832 921 833 804 833 922 833 922 834 804 834 803 834 922 835 803 835 923 835 923 836 803 836 801 836 923 873 801 873 924 873 924 838 801 838 799 838 924 874 799 874 925 874 925 874 799 874 796 874 925 875 796 875 926 875 926 876 796 876 794 876 926 877 794 877 927 877 927 878 794 878 792 878 927 879 792 879 928 879 928 807 792 807 791 807 928 808 791 808 929 808 929 808 791 808 790 808 929 880 790 880 930 880 930 810 790 810 789 810 930 881 789 881 931 881 931 882 789 882 788 882 931 883 788 883 932 883 932 884 788 884 787 884 932 885 787 885 933 885 933 851 787 851 786 851 933 852 786 852 934 852 934 853 786 853 785 853 934 854 785 854 935 854 935 855 785 855 784 855 935 886 784 886 936 886 936 857 784 857 782 857 936 887 782 887 937 887 937 888 782 888 780 888 937 889 780 889 938 889 938 890 780 890 778 890 938 891 778 891 915 891 915 822 778 822 747 822 917 122 927 122 916 122 916 122 927 122 928 122 916 122 928 122 915 122 915 122 928 122 929 122 915 122 929 122 938 122 938 122 929 122 930 122 938 122 930 122 937 122 937 122 930 122 931 122 937 122 931 122 936 122 936 122 931 122 932 122 936 122 932 122 935 122 935 122 932 122 933 122 935 122 933 122 934 122 927 122 917 122 926 122 926 122 917 122 918 122 926 122 918 122 925 122 925 122 918 122 919 122 925 122 919 122 924 122 924 122 919 122 920 122 924 122 920 122 923 122 923 122 920 122 921 122 923 122 921 122 922 122 744 99 939 99 940 99 940 99 939 99 941 99 940 99 941 99 746 99 746 99 941 99 745 99 745 99 941 99 942 99 745 99 942 99 943 99 939 99 744 99 943 99 943 99 744 99 745 99 737 3 741 3 746 3 746 3 741 3 940 3 741 121 743 121 940 121 940 121 743 121 744 121 944 1 945 1 942 1 942 1 945 1 943 1 946 145 944 145 941 145 941 145 944 145 942 145 947 3 946 3 939 3 939 3 946 3 941 3 945 121 947 121 943 121 943 121 947 121 939 121 945 122 944 122 948 122 948 122 944 122 949 122 946 122 950 122 944 122 944 122 950 122 951 122 946 122 947 122 952 122 952 122 947 122 953 122 945 122 954 122 947 122 947 122 954 122 955 122 956 121 945 121 957 121 957 121 945 121 948 121 947 121 958 121 953 121 953 121 958 121 959 121 944 145 960 145 949 145 949 145 960 145 961 145 949 1 961 1 948 1 948 1 961 1 957 1 962 145 946 145 963 145 963 145 946 145 952 145 963 3 952 3 959 3 959 3 952 3 953 3 962 3 964 3 946 3 946 3 964 3 950 3 453 99 451 99 965 99 965 99 451 99 449 99 965 99 449 99 495 99 495 99 493 99 965 99 965 99 493 99 491 99 965 99 491 99 489 99 489 99 487 99 965 99 965 99 487 99 960 99 960 99 487 99 485 99 960 99 485 99 483 99 483 99 481 99 960 99 960 99 481 99 479 99 960 99 479 99 477 99 477 99 475 99 960 99 960 99 475 99 523 99 960 99 523 99 962 99 962 99 523 99 521 99 962 99 521 99 519 99 475 99 473 99 523 99 523 99 473 99 525 99 525 99 473 99 471 99 525 99 471 99 527 99 527 99 471 99 469 99 527 99 469 99 529 99 529 99 469 99 467 99 529 99 467 99 531 99 531 99 467 99 465 99 531 99 465 99 533 99 533 99 465 99 463 99 533 99 463 99 535 99 535 99 463 99 537 99 537 99 463 99 461 99 537 99 461 99 539 99 539 99 461 99 459 99 539 99 459 99 541 99 541 99 459 99 457 99 541 99 457 99 543 99 543 99 457 99 455 99 543 99 455 99 453 99 501 99 499 99 964 99 964 99 499 99 497 99 964 99 497 99 453 99 453 99 497 99 543 99 519 99 517 99 962 99 962 99 517 99 515 99 962 99 515 99 513 99 513 99 511 99 962 99 962 99 511 99 964 99 964 99 511 99 509 99 964 99 509 99 507 99 507 99 505 99 964 99 964 99 505 99 503 99 964 99 503 99 501 99 549 99 547 99 966 99 966 99 547 99 545 99 966 99 545 99 591 99 591 99 589 99 966 99 966 99 589 99 587 99 966 99 587 99 585 99 585 99 583 99 966 99 966 99 583 99 958 99 958 99 583 99 581 99 958 99 581 99 579 99 579 99 577 99 958 99 958 99 577 99 575 99 958 99 575 99 573 99 573 99 571 99 958 99 958 99 571 99 956 99 958 99 956 99 960 99 960 99 956 99 727 99 960 99 727 99 725 99 956 99 571 99 619 99 619 99 571 99 569 99 619 99 569 99 621 99 621 99 569 99 567 99 621 99 567 99 623 99 623 99 567 99 625 99 625 99 567 99 565 99 625 99 565 99 627 99 627 99 565 99 563 99 627 99 563 99 629 99 629 99 563 99 561 99 629 99 561 99 631 99 631 99 561 99 559 99 631 99 559 99 557 99 631 99 557 99 633 99 633 99 557 99 555 99 633 99 555 99 635 99 635 99 555 99 553 99 635 99 553 99 637 99 637 99 553 99 551 99 637 99 551 99 639 99 639 99 551 99 593 99 593 99 551 99 549 99 593 99 549 99 966 99 597 99 595 99 967 99 967 99 595 99 593 99 967 99 593 99 966 99 619 99 617 99 956 99 956 99 617 99 615 99 956 99 615 99 613 99 613 99 611 99 956 99 956 99 611 99 609 99 956 99 609 99 607 99 956 99 607 99 967 99 967 99 607 99 605 99 967 99 605 99 603 99 603 99 601 99 967 99 967 99 601 99 599 99 967 99 599 99 597 99 968 99 969 99 963 99 963 99 969 99 970 99 963 99 970 99 962 99 962 99 970 99 971 99 962 99 971 99 972 99 972 99 973 99 962 99 962 99 973 99 974 99 962 99 974 99 975 99 976 99 977 99 975 99 975 99 977 99 978 99 975 99 978 99 962 99 962 99 978 99 958 99 962 99 958 99 960 99 977 99 976 99 979 99 979 99 976 99 980 99 979 99 980 99 981 99 981 99 980 99 982 99 981 99 982 99 983 99 983 99 982 99 984 99 983 99 984 99 985 99 985 99 984 99 986 99 985 99 986 99 987 99 987 99 986 99 988 99 987 99 988 99 989 99 989 99 988 99 990 99 989 99 990 99 991 99 991 99 990 99 992 99 991 99 992 99 993 99 993 99 992 99 994 99 993 99 994 99 995 99 995 99 994 99 996 99 995 99 996 99 997 99 997 99 996 99 998 99 997 99 998 99 959 99 959 99 998 99 963 99 963 99 998 99 999 99 963 99 999 99 1000 99 1000 99 1001 99 963 99 963 99 1001 99 1002 99 963 99 1002 99 1003 99 1003 99 968 99 963 99 978 99 1004 99 958 99 958 99 1004 99 1005 99 958 99 1005 99 1006 99 1006 99 1007 99 958 99 958 99 1007 99 1008 99 958 99 1008 99 959 99 959 99 1008 99 1009 99 959 99 1009 99 1010 99 1010 99 1011 99 959 99 959 99 1011 99 1012 99 959 99 1012 99 1013 99 1013 99 1014 99 959 99 959 99 1014 99 1015 99 959 99 1015 99 997 99 645 99 643 99 957 99 957 99 643 99 641 99 957 99 641 99 956 99 956 99 641 99 687 99 956 99 687 99 685 99 685 99 683 99 956 99 956 99 683 99 681 99 956 99 681 99 679 99 677 99 729 99 679 99 679 99 729 99 727 99 679 99 727 99 956 99 729 99 677 99 731 99 731 99 677 99 675 99 731 99 675 99 733 99 733 99 675 99 673 99 733 99 673 99 735 99 735 99 673 99 671 99 735 99 671 99 689 99 689 99 671 99 669 99 689 99 669 99 691 99 691 99 669 99 667 99 691 99 667 99 693 99 693 99 667 99 665 99 693 99 665 99 695 99 695 99 665 99 663 99 695 99 663 99 697 99 697 99 663 99 661 99 697 99 661 99 699 99 699 99 661 99 659 99 699 99 659 99 701 99 701 99 659 99 657 99 701 99 657 99 961 99 961 99 657 99 957 99 957 99 657 99 655 99 957 99 655 99 653 99 653 99 651 99 957 99 957 99 651 99 649 99 957 99 649 99 647 99 647 99 645 99 957 99 725 99 723 99 960 99 960 99 723 99 721 99 960 99 721 99 719 99 719 99 717 99 960 99 960 99 717 99 961 99 961 99 717 99 715 99 961 99 715 99 713 99 713 99 711 99 961 99 961 99 711 99 709 99 961 99 709 99 707 99 707 99 705 99 961 99 961 99 705 99 703 99 961 99 703 99 701 99 965 99 964 99 453 99 944 1 951 1 960 1 960 1 951 1 965 1 956 1 967 1 945 1 945 1 967 1 954 1 947 3 955 3 958 3 958 3 955 3 966 3 967 121 966 121 954 121 954 121 966 121 955 121 964 145 965 145 950 145 950 145 965 145 951 145 1016 892 985 892 1017 892 1017 893 985 893 987 893 1017 894 987 894 1018 894 1018 895 987 895 989 895 1018 896 989 896 1019 896 1019 897 989 897 991 897 1019 898 991 898 1020 898 1020 899 991 899 993 899 1020 900 993 900 1021 900 1021 900 993 900 995 900 1021 901 995 901 1022 901 1022 901 995 901 997 901 1022 902 997 902 1023 902 1023 902 997 902 1015 902 1023 903 1015 903 1024 903 1024 904 1015 904 1014 904 1024 905 1014 905 1025 905 1025 906 1014 906 1013 906 1025 907 1013 907 1026 907 1026 907 1013 907 1012 907 1026 908 1012 908 1027 908 1027 909 1012 909 1011 909 1027 910 1011 910 1028 910 1028 911 1011 911 1010 911 1028 912 1010 912 1029 912 1029 913 1010 913 1009 913 1029 914 1009 914 1030 914 1030 915 1009 915 1008 915 1030 916 1008 916 1031 916 1031 917 1008 917 1007 917 1031 918 1007 918 1032 918 1032 919 1007 919 1006 919 1032 920 1006 920 1033 920 1033 920 1006 920 1005 920 1033 921 1005 921 1034 921 1034 922 1005 922 1004 922 1034 923 1004 923 1035 923 1035 924 1004 924 978 924 1035 925 978 925 1036 925 1036 925 978 925 977 925 1036 926 977 926 1037 926 1037 926 977 926 979 926 1037 927 979 927 1038 927 1038 927 979 927 981 927 1038 928 981 928 1039 928 1039 929 981 929 983 929 1039 930 983 930 1016 930 1016 931 983 931 985 931 1018 99 1028 99 1017 99 1017 99 1028 99 1029 99 1017 99 1029 99 1016 99 1016 99 1029 99 1030 99 1016 99 1030 99 1039 99 1039 99 1030 99 1031 99 1039 99 1031 99 1038 99 1038 99 1031 99 1032 99 1038 99 1032 99 1037 99 1037 99 1032 99 1033 99 1037 99 1033 99 1036 99 1036 99 1033 99 1034 99 1036 99 1034 99 1035 99 1028 99 1018 99 1027 99 1027 99 1018 99 1019 99 1027 99 1019 99 1026 99 1026 99 1019 99 1020 99 1026 99 1020 99 1025 99 1025 99 1020 99 1021 99 1025 99 1021 99 1024 99 1024 99 1021 99 1022 99 1024 99 1022 99 1023 99 1040 932 970 932 1041 932 1041 933 970 933 969 933 1041 934 969 934 1042 934 1042 935 969 935 968 935 1042 936 968 936 1043 936 1043 896 968 896 1003 896 1043 937 1003 937 1044 937 1044 938 1003 938 1002 938 1044 939 1002 939 1045 939 1045 939 1002 939 1001 939 1045 901 1001 901 1046 901 1046 940 1001 940 1000 940 1046 941 1000 941 1047 941 1047 902 1000 902 999 902 1047 903 999 903 1048 903 1048 903 999 903 998 903 1048 906 998 906 1049 906 1049 906 998 906 996 906 1049 942 996 942 1050 942 1050 942 996 942 994 942 1050 943 994 943 1051 943 1051 944 994 944 992 944 1051 945 992 945 1052 945 1052 910 992 910 990 910 1052 946 990 946 1053 946 1053 947 990 947 988 947 1053 948 988 948 1054 948 1054 949 988 949 986 949 1054 917 986 917 1055 917 1055 950 986 950 984 950 1055 951 984 951 1056 951 1056 952 984 952 982 952 1056 953 982 953 1057 953 1057 953 982 953 980 953 1057 921 980 921 1058 921 1058 921 980 921 976 921 1058 924 976 924 1059 924 1059 924 976 924 975 924 1059 925 975 925 1060 925 1060 954 975 954 974 954 1060 955 974 955 1061 955 1061 926 974 926 973 926 1061 956 973 956 1062 956 1062 956 973 956 972 956 1062 957 972 957 1063 957 1063 958 972 958 971 958 1063 931 971 931 1040 931 1040 959 971 959 970 959 1042 99 1052 99 1041 99 1041 99 1052 99 1053 99 1041 99 1053 99 1040 99 1040 99 1053 99 1054 99 1040 99 1054 99 1063 99 1063 99 1054 99 1055 99 1063 99 1055 99 1062 99 1062 99 1055 99 1056 99 1062 99 1056 99 1061 99 1061 99 1056 99 1057 99 1061 99 1057 99 1060 99 1060 99 1057 99 1058 99 1060 99 1058 99 1059 99 1052 99 1042 99 1051 99 1051 99 1042 99 1043 99 1051 99 1043 99 1050 99 1050 99 1043 99 1044 99 1050 99 1044 99 1049 99 1049 99 1044 99 1045 99 1049 99 1045 99 1048 99 1048 99 1045 99 1046 99 1048 99 1046 99 1047 99</p>
        </triangles>
      </mesh>
    </geometry>
  </library_geometries>
  <library_visual_scenes>
    <visual_scene id="Scene" name="Scene">
      <node id="node" name="node" type="NODE">
        <matrix sid="transform">0.001 0 0 0 0 0.001 0 0 0 0 0.001 0.03 0 0 0 1</matrix>
        <instance_geometry url="#shape0-mesh" name="node"/>
      </node>
    </visual_scene>
  </library_visual_scenes>
  <scene>
    <instance_visual_scene url="#Scene"/>
  </scene>
</COLLADA>